<svg version="1" xmlns="http://www.w3.org/2000/svg" width="744" height="744" viewBox="0 0 558.000000 558.000000"><path d="M239.9 6.7c-.1.5-.1 1.1 0 1.5 0 .5-.3.8-.9.8-2 0-2.5.2-3.8 1.3-1 .8-1.6.7-2.3-.4-.7-1.1-.9-1.1-.9-.1 0 .9-.7 1.1-2.2.7-2.3-.7-2.3-.7-.3 1 2 1.6 2 1.6-.1 1.2-1.3-.3-2.1.1-2.1.9s.3 1.4.7 1.4c1.3 0 .5 4.5-1 5.7-.8.6-1.2 1.5-.7 1.9.4.4.7.2.7-.4 0-.7.5-1.2 1.1-1.2.7 0 .5 1-.6 2.6-.9 1.4-1.4 2.8-1.1 3.2.3.3.6 0 .6-.6 0-.7.5-1.2 1-1.2 1.4 0 .8 2.3-1 3.7-.8.6-1.2 1.5-.7 1.9.4.4.7.2.7-.4 0-.7.4-1.2.9-1.2s.7.9.4 2c-.3 1.1-.9 1.7-1.4 1.4-.5-.3-.6.2-.3 1 .3.9.9 1.4 1.3 1.2.3-.2.6 1.1.7 3 0 2.2-.4 3.4-1.3 3.4-.7 0-1.3.4-1.3 1 0 .5.8.6 1.8.3 1.4-.6 1.5-.4.5.8-1 1.2-1 1.8 0 2.9 1 1 .8 1.2-.8.6-1.1-.4-1.6-.4-1.2 0 .4.4.1 1.4-.6 2.3-1.1 1.4-1 1.4.6.2.9-.7 1.7-1 1.8-.5 0 .5.2 1.7.4 2.6.2 1-.1 2-.6 2.4-.5.3-.9 1-.9 1.5 0 .6.5.7 1.2.3.7-.4.8-.3.4.5-.4.6-1.2.9-1.7.6-.5-.3-.6.1-.3.9.3.9.9 1.4 1.3 1.2.3-.2.6 1.1.7 3 0 2.2-.4 3.4-1.3 3.4-.7 0-1.3.4-1.3 1 0 .5.8.6 1.8.3 1.4-.6 1.5-.4.5.8-1 1.2-1 1.8 0 2.9 1 1 .8 1.2-.8.6-1.1-.4-1.6-.4-1.2 0 .4.4.1 1.4-.6 2.3-1.1 1.4-1 1.4.6.2.9-.7 1.7-1 1.8-.5 0 .5.2 1.7.4 2.6.2 1-.1 2-.6 2.4-.5.3-.9 1-.9 1.5 0 .6.5.7 1.2.3.7-.4.8-.3.4.5-.4.6-1.2.9-1.7.6-.5-.3-.6.1-.3.9.3.9.9 1.4 1.3 1.2.3-.2.6 1.1.7 3 0 2.2-.4 3.4-1.3 3.4-.7 0-1.3.4-1.3 1 0 .5.8.6 1.8.3 1.4-.6 1.5-.4.5.8-1 1.2-1 1.8 0 2.9 1 1 .9 1.2-.3.8-1.1-.4-1.5.2-1.6 2.1-.1 1.4.1 2 .3 1.3.3-.6.9-1.2 1.4-1.2 1.3 0 .7 2.3-1.1 3.7-1.3 1.2-1.3 1.2.1.8 1.1-.4 1.5 0 1.4 1.4-.1 1.1-.5 2.4-1 2.8-.4.5-.5.3-.1-.4.3-.6.2-1.4-.3-1.7-1.5-1-.7 2 1.1 3.7.8.9 1.9 1.3 2.3.9.5-.4.5-.1.1.6s0 2 .9 2.9c1.4 1.4 1.8 1.4 2.6.2.8-1.3 1-1.2 1.3 1 0 .5.5 1.3 1 1.8.5.4.6.3.3-.3-.4-.7.1-1.8 1-2.5.9-.8 1.4-.9 1.1-.4-.4.6.5 1.6 2 2.3 1.9.9 2.3.9 1.4 0-2.4-2.4-1.1-2.9 2.1-.7 2.8 2 3 2.1 1.4.3-1.4-1.7-1.5-2.1-.2-2.1.8 0 1.5.3 1.5.6 0 .4 1 1.2 2.3 2 1.7 1 1.9 1.1 1 0-2-2-1.5-3.4.5-1.7.9.8 2.4 1.8 3.2 2.2.9.5.8.2-.2-.7-1-.8-1.8-1.7-1.8-2.1 0-1 2.4-.2 3.8 1.4.8.8 1.1 1 .8.4-.3-.7.1-1.5 1-1.8 1.2-.5 1.4-.1.9 1.5-.7 2-.6 2 1.6-.2 1.4-1.4 2.4-1.8 2.7-1.1.2.7.8 1.2 1.3 1.2.6 0 .7-.6.3-1.3-.6-1-.4-1 .7 0 1.6 1.6 3.3 1.7 2.3.2-.3-.6.6-.3 2.2.7 2.8 1.8 2.9 1.8 1.4 0-1.4-1.8-1.4-1.9.7-.8 2.6 1.4 3.6 1.5 2.9.4-.3-.5.1-.9.9-.9s1.2.4.9.9c-.8 1.3 1 1 2.5-.5 1.2-1 1.3-.9.7.7-.7 2-.7 2 1.5 0 1.2-1 1.9-1.4 1.6-.7-.5.7-.1 1.2 1 1.1 1 0 2.7.3 3.8.7 1.9.7 1.9.7.2-.6-1.6-1.3-1.6-1.4.8-1.4 2 0 2.4.4 1.9 1.8-.5 1.6-.2 1.5 1.7-.4 1.4-1.4 2.4-1.8 2.7-1.1.2.7.8 1.2 1.3 1.2.6 0 .7-.6.3-1.3-.6-1-.4-1 .7 0 1.6 1.6 3.3 1.7 2.3.2-.3-.6.6-.3 2.2.7 2.8 1.8 2.9 1.8 1.4 0-1.4-1.8-1.4-1.9.7-.8 2.6 1.4 3.6 1.5 2.9.4-.3-.5.1-.9.9-.9s1.2.4.9.9c-.8 1.3 1 1 2.5-.5 1.2-1 1.3-.9.7.7-.7 2-.7 2 1.5 0 1.2-1 1.9-1.4 1.6-.7-.5.7-.1 1.2 1 1.1 1 0 2.7.3 3.8.7 1.9.7 1.9.7.2-.7-1.7-1.3-1.7-1.4.5-1.3 1.3.1 2.9.5 3.6.9 1.5.9 3.2-.1 3.2-1.9 0-.9.6-1.2 1.7-.8 1 .4 1.4.2 1-.4-.8-1.3 1.7-3.5 2.9-2.5.4.4.2-.2-.6-1.2-.8-1.1-1.3-2.1-1.2-2.3.2-.3 0-.8-.4-1.1-.4-.4-.4-.1.1.7.6 1 .4 1.2-.4.7-.8-.6-.9-1.2-.2-2s.7-1.6.1-2.2c-1.1-1.1-.1-5.6 1-4.9.5.3 1.2.1 1.5-.5.4-.6.3-1-.2-.9-.4.1-1.5.1-2.3-.1-1.1-.1-.9-.4.5-1 1.6-.7 1.7-.9.3-.9-1.4-.1-1.5-.6-.8-3.2 1.1-3.9 2.9-6.1 4.3-5.2.6.3.7.1.3-.6-.6-.9-1.1-.9-2.4.1-1.3 1.1-1.5 1-.9-.4.3-1 .1-2-.5-2.4-.6-.4-.8-.3-.4.4.3.6.2 1.3-.2 1.6-1 .6-.7-5 .4-7.8.6-1.5.4-1.7-.6-1.1-.9.5-1.1.4-.6-.4.4-.6 1.1-.9 1.6-.6.4.3 1.3-.2 2-1 1-1.2.7-1.3-1.3-.9-1.8.3-2.5 0-2.3-1.1.1-.8.6-1.8 1.1-2.2.4-.4.5-.2.1.4-.5.9-.2 1.1 1 .6 1.4-.5 1.4-.7-.5-1.7-1.9-1.1-2-1.3-.5-3.4.8-1.2 1.3-2.8 1.1-3.5-.3-.7-.6-.5-.6.5-.1 1-.5 1.8-1 1.8-1 0-.9-2.6.2-3.6 1-1 .9-2.6-.2-2-.8.5-.7-1.5.5-6.8.5-2 .4-2.7-.5-2.2-.6.4-1.1.3-1.1-.2 0-1.7 1.3-2.2 2.9-.9 1.4 1 1.4 1 .4-.4-.7-.9-1-1.9-.6-2.3.4-.4-.1-.4-1.2 0-1.6.6-1.8.5-.7-.7 1.4-1.5 1.6-3.3.3-2.5-.8.5-.7-1.5.5-6.8.5-2 .4-2.7-.5-2.2-.6.4-1.1.3-1.1-.2 0-1.7 1.3-2.2 2.9-.9 1.4 1 1.4 1 .4-.4-.7-.9-1-1.9-.6-2.3.4-.4-.1-.4-1.2 0-1.6.6-1.8.5-.7-.7 1.4-1.5 1.6-3.3.3-2.5-.8.5-.7-1.5.5-6.8.5-2 .4-2.7-.5-2.2-.6.4-1.1.1-1.1-.9 0-.9-.4-1.3-1-1-.9.6-1.4-.8-1.1-2.8.2-1-3.2-.5-4 .6-.3.4-1.8.3-3.2-.2-1.7-.7-2.7-.7-2.7-.1s-.4 1-.9 1-.7-1-.5-2.3c.4-2 .4-2-.7.3-1 2-1.3 2.2-1.6.8-.4-1.5-.8-1.5-3.6-.3-2.1.9-3.8 1-4.9.4-1.2-.7-1.8-.6-1.8.1 0 1.1-4.1.7-6.1-.6-.6-.3-1.5-.1-1.9.7-.7 1-1.2 1-2.3.1-.7-.7-1.7-.9-2.1-.5-.3.4-1.4.8-2.4.9-1.5.2-1.4.1.2-1.2 2.3-1.6 1.4-1.9-1.4-.4-4.6 2.5-8.6 1.8-8.1-1.3 0-.4-.4-.7-1-.7s-.9.7-.6 1.5c.4.8.1 1.7-.5 2.1-.7.4-.8.3-.4-.4s.3-1.2-.3-1.2c-.5 0-1.1.5-1.3 1.1-.2.7-1.2.7-3.1 0-1.7-.7-2.7-.7-2.7-.1s-.4 1-.9 1-.7-1-.5-2.3c.4-2 .4-2-.7.3-1 2-1.3 2.2-1.6.8-.4-1.5-.8-1.5-3.6-.3-2.1.9-3.8 1-4.9.4-1.2-.7-1.8-.6-1.8.1 0 1.1-4.1.7-6.1-.6-.6-.3-1.5-.1-1.9.7-.7 1-1.2 1-2.3.1-.7-.7-1.7-.9-2.1-.5-.3.4-1.4.8-2.4.9-1.5.2-1.4.1.2-1.2 1.1-.8 1.4-1.4.7-1.4s-.9-.5-.6-1c.3-.6.4-1 .1-1-.3 0-.7.3-.7.7zM331 83.4c0 .3-.4.8-1 1.1-.5.3-1 .1-1-.4 0-.6.5-1.1 1-1.1.6 0 1 .2 1 .4zm0 22c0 .3-.4.8-1 1.1-.5.3-1 .1-1-.4 0-.6.5-1.1 1-1.1.6 0 1 .2 1 .4zM125.8 8.7c-.6 2.3-2.8 3.2-2.8 1.3 0-.6-.4-1-.9-1s-.7.9-.4 2c.3 1.2 0 2-.6 2-.7 0-.9-.6-.5-1.3.4-.6-.2-.4-1.2.5-2.2 2.1-2.8 7.2-.8 6.4 1-.4 1.1.1.4 1.8-.5 1.3-.7 2.6-.5 2.8.9.9 1.3 5.8.4 5.8-.5 0-.9.5-.9 1.1 0 .5.3.8.8.6.4-.3.7 2.8.7 6.9 0 4.1-.3 7.4-.7 7.4-.5 0-.8.5-.8 1.1 0 .5.6.7 1.3.3.6-.4.3.3-.8 1.6s-1.4 2-.7 1.6c.7-.4 1.2-.2 1.3.6 0 .7.2 2.1.4 3 .2 1.1-.3 1.8-1.3 1.8-1.3 0-1.4.2-.4.8 1.5 1 2.5 5.2 1.1 5.2-.5 0-.9.5-.9 1.1 0 .5.3.8.8.6.4-.3.7 2.8.7 6.9 0 4.1-.3 7.4-.7 7.4-.5 0-.8.5-.8 1.1 0 .5.6.7 1.3.3.6-.4.3.3-.8 1.6s-1.4 2-.7 1.6c.7-.4 1.2-.2 1.3.6 0 .7.2 2.1.4 3 .2 1.1-.3 1.8-1.3 1.8-1.3 0-1.4.2-.4.8 1.5 1 2.5 5.2 1.1 5.2-.5 0-.9.5-.9 1.1 0 .5.4.8.8.5 1-.6.7 11.8-.3 13.5-.6.9-.3 1 .9.6 1.4-.6 1.7-.3 1.2.9-.9 2.3.3 3.7 2 2.3 1.7-1.4 1.9.2.2 2.1-1 1.1-.9 1.1.7 0 1.1-.8 2.3-2 2.7-2.5.5-.6.8-.6.8.1 0 .6 1.2 1.6 2.8 2.3 2.5 1 2.6 1 .8-.4-2.3-1.7-2.5-1.7 7.6-1.9 4.2 0 7.4.2 7.2.5-.2.4.2.9 1 1.2.8.3 1.3 1.4 1.1 2.4-.2 1-.4 2.4-.4 3.2-.1 1-.4 1.1-1.4.2-.8-.6-1.6-.9-1.9-.6-1 1.1-9.4.8-11.5-.3-1.8-1-2.3-.9-3.1.4-.6 1.1-1.2 1.3-1.6.6-.4-.7-1.5-.8-3-.2-1.3.5-2.7.6-3.1.2-.4-.4-.4.4-.1 1.8.5 1.7.4 2.1-.2 1.1-1.3-1.8-2.5.3-1.7 2.9.4 1.2.2 2-.5 2-.6 0-.9-.4-.6-.9.3-.5-.2-1.5-1.2-2.2-1.5-1.2-1.6-1.2-.6.1.5.8 1 2.2.9 3-.1.8.5 2.8 1.3 4.4 1.2 2.5 1.2 2.8 0 2.3-.8-.3-2.1-.1-2.9.5-1.1.8-1.1.9.3.4 1.7-.5 3.1.7 3.4 3.1.1.7-.4 1.3-1.2 1.3-.8 0-1.4.5-1.4 1.1 0 .5.4.8.9.5.5-.4 1.1 1.9 1.3 5 .1 3.1-.1 5.8-.6 6.2-.5.3-.6 0-.2-.6.3-.6.3-1.3-.2-1.6-.4-.2-.8.6-.8 1.9 0 1.3.3 2.2.7 1.9.4-.2 1 .3 1.3 1.2.4 1.1.2 1.5-.7 1.1-.8-.3-1.4.1-1.4.9 0 .7.4 1.1.8.8.4-.2 1 0 1.4.6.3.5-.2 1-1.1 1-1.6 0-1.6.1.2 1.6 1.6 1.3 1.6 1.5.2 1-2.3-.7-2.3.3-.1 2 1.1.8 1.3 1.3.6 1.4-.7 0-1.3.5-1.3 1.1 0 .5.4.8.9.5 1.1-.7.8 2.1-.4 3.1-.4.4-.5.2 0-.6.5-.9.4-1.2-.3-.8-.5.4-.9 1.5-.7 2.5.2.9.4 2.1.4 2.5.1.5.5.6.9.3.4-.2.8.6.8 1.9 0 1.3-.4 2.1-.8 1.9-.5-.3-.5-1-.2-1.6.4-.7.2-.8-.4-.4-.9.5-.8 1.5.4 3.8 1.3 2.6 1.4 3 .2 2.5-.8-.3-2.1-.1-2.9.5-1.1.8-1.1.9.3.4 1.7-.5 3.1.7 3.4 3.1.1.7-.4 1.3-1.2 1.3-.8 0-1.4.5-1.4 1.1 0 .5.4.8.9.5.5-.4 1.1 1.9 1.3 5 .1 3.1-.1 5.8-.6 6.2-.5.3-.6 0-.2-.6.3-.6.3-1.3-.2-1.6-.4-.2-.8.6-.8 1.9 0 1.3.3 2.2.7 1.9.4-.2 1 .3 1.3 1.2.4 1.1.2 1.5-.7 1.1-.8-.3-1.4.1-1.4.9 0 .7.4 1.1.8.8.4-.2 1 0 1.4.6.3.5-.1 1-.9 1-.9 0-1.6.5-1.6 1.1 0 .5.4.8.9.5.5-.3 1.1.6 1.4 2 .3 1.7.1 2.4-.8 2.1-.6-.3-1.2.1-1.2.9s.6 1.3 1.4 1c1.8-.7 1.6-.1-.4 2-1.7 1.7-1.7 1.8 0 1.1.9-.3 1.7-.2 1.7.4 0 .6.5.7 1 .4.5-.3 1 .1 1 .9 0 1.3 4 1.5 30.9 1.5 22.6 0 31.6.3 33.3 1.2 2 1 2.1 1 1.1-.2-.9-1.1-.7-1.4 1.2-1.4 1.3 0 2.1.4 1.8.9-.3.4.3.6 1.3.3 4.5-1.4 20.8-1.1 19.9.3-.3.5-.1 1 .4 1 .6 0 1.1-.6 1.1-1.4 0-1 .8-1.3 2.5-1 1.8.3 2.5 0 2.5-1.2 0-1.1.6-1.5 2-1.1 1.1.3 2.3.1 2.6-.4.3-.5 0-.8-.7-.7-.6.2-1.4-.3-1.6-1-.3-.6 0-1.2.7-1.2.8 0 .8-.6 0-2-.7-1.4-.7-2 0-2 .5 0 1-.5 1-1.1 0-.5-.4-.8-.8-.5-.5.3-.9-.2-.9-1s.6-1.3 1.2-1c.6.2 1.2-.2 1.2-1s-.5-1.3-1.1-1.1c-.6.3-1.1-.8-1.1-2.4-.1-1.5.3-2.5.7-2.3.5.3.6.9.3 1.4-.3.5-.1 1.1.4 1.5 1.1.6.8-1.7-.8-5.8-.7-1.7-.7-2.7-.1-2.7s1-.5 1-1.1c0-.5-.3-.8-.7-.6-1.1.7-.8-10.1.2-11.1.5-.4.5 0 0 .8s-.4 1.2 0 .7c1.4-1.2 1.5-3.9.3-6.1-1.5-2.6-1.7-6.6-.4-7.3.5-.4.6-.1.1.7-.5.8-.4 1.1.3.7 1.2-.8.9-5.4-.6-6.9-1.2-1.2-.4-4.8 1.2-4.8.6 0 .5-.4-.3-.9-1.8-1.1-2.3-4.1-.8-4.1.8 0 .8-.3 0-1.1-1.1-1.1-1.1-1.9.4-5.7 1.1-3.2 1.3-5.2.4-5.2-.6 0-.8.9-.6 2 .2 1.1.1 1.8-.4 1.6-1-.6-.7-7.4.4-8.4.5-.4.5-.1 0 .7-.5.9-.4 1.2.3.8 1.2-.8.9-5.4-.6-6.9-.6-.6-.7-2-.4-3.2 1.3-3.9.7-7.1-1.1-7-.9.1-1.5-.2-1.2-.6.3-.5.1-1.1-.5-1.5-.6-.4-.7-1.1-.4-1.7.5-.7.2-.8-.7-.2-1.8 1.1-4 1.4-3.4.5.2-.5-1.8-.6-4.5-.3-3.4.3-5.5 0-6.7-.9-1.5-1.2-1.6-1.2-1.1.3.7 1.7-1.4 2-2.9.3-.4-.4-.2-.5.6 0 1 .6 1.2.4.6-.5-.6-1-1.1-.9-2.2.6-1.3 1.8-1.4 1.6-1-1.3.3-1.8.1-3.5-.4-3.9-.5-.3-.7-1-.4-1.5.4-.5 1.3-.3 2.1.6.9.8 2.3 1.5 3.2 1.4 1.2 0 1.1-.3-.5-.9-2.8-1.1-2.9-1.7-.5-1.5 2.8.2 4.1 1.4 3.7 3.5-.2 1.1 0 2.2.5 2.5.5.3.7-.4.5-1.5-.2-1.2.2-2.3 1-2.7.8-.3 1.2-1 .9-1.5-.4-.6.2-.5 1.4.1 1.5.8 2.2.8 2.5-.2.4-.9.6-.9.6 0 .1.7.6 1.3 1.2 1.3.5 0 .8-.4.5-.9-.7-1 1.3-.9 3.1.2.7.4 1.4-.1 1.8-1.3.3-1.1 1.3-2 2.1-2s1.2-.5.9-1c-.3-.6-.1-1 .4-1 .6 0 1.1-.5 1.1-1.1 0-.5-.4-.8-.8-.5-.4.2-.8-.8-.7-2.4 0-2.3.2-2.6 1.4-1.7 1.2 1 1.2.8.1-1.3-1.9-3.3-2-4.9-.8-5.7.7-.4.8-.1.3.7-.6.9-.4 1.1.5.5 1-.6.9-1.1-.4-2.1-1.2-.8-1.3-1.3-.5-1.6.7-.2 1.4-1.5 1.6-2.9.2-1.8.1-2-.6-.9-.5.8-.7 1.9-.4 2.5.4.5.3.7-.1.4-.4-.4-.8-14.6-.9-31.7-.2-27.3 0-30.9 1.3-29.9 1 .8.9.3-.4-1.7-1.1-1.8-1.3-2.5-.5-2 1.2.6 1.2.5.1-.8-1-1.3-1-1.7.4-2.2 1.5-.6 1.5-.8.1-3-1.4-2-1.4-2.5-.1-3.8 1.3-1.3 1.2-1.7-.8-3.4l-2.3-1.9 2 2.4 2 2.4-2.7-1.7c-1.8-1.2-2.5-2.3-2.1-3.3.5-1.2.3-1.4-.8-.7-2.1 1.3-4 1.4-3.2.2.4-.8-.4-.9-2.6-.5-2.4.5-3 .3-2.6-.6.4-.6 0-.4-.8.5-1.3 1.7-4.3 1.8-6.8.2-.6-.3-1.5-.1-1.9.7-.7 1-1.2 1-2.3.1-.7-.7-1.7-.9-2.1-.5-.3.4-1.4.8-2.4.9-1.5.2-1.4.1.2-1.2 2.3-1.6 1.4-1.9-1.4-.4-4.6 2.5-8.6 1.8-8.1-1.3 0-.4-.4-.7-1-.7s-.9.7-.6 1.5c.4.8.1 1.7-.5 2.1-.7.4-.8.3-.4-.4s.3-1.2-.3-1.2c-.5 0-1.1.5-1.3 1.1-.2.7-1.2.7-3.1 0-1.7-.7-2.7-.7-2.7-.1s-.4 1-.9 1-.7-1-.5-2.3c.4-2 .4-2-.7.3-1 2-1.3 2.2-1.6.8-.4-1.5-.8-1.5-3.6-.3-2.1.9-3.8 1-4.9.4-1.2-.7-1.8-.6-1.8.1 0 1.1-4.1.7-6.1-.6-.6-.3-1.5-.1-1.9.7-.7 1-1.2 1-2.3.1-.7-.7-1.7-.9-2.1-.5-.3.4-1.4.8-2.4.9-1.5.2-1.4.1.2-1.2 2.3-1.6 1.4-1.9-1.4-.4-4.6 2.5-8.6 1.8-8.1-1.3 0-.4-.4-.7-1-.7s-.9.7-.6 1.5c.4.8.1 1.7-.5 2.1-.7.4-.8.3-.4-.4s.2-1.2-.3-1.2c-.6 0-1.1.4-1.1 1 0 .5-.5 1-1 1-.7 0-.7-.7 0-2.3 1-2 1-2-.8.2l-2 2.5-.4-2.5c-.3-2.4-.3-2.4-1-.2zM120 14c0 .5-.5 1-1.1 1-.5 0-.7-.5-.4-1 .3-.6.8-1 1.1-1 .2 0 .4.4.4 1zm2.3 96.5c-.3.9-.8 1.4-1 1.1-.3-.3-.2-.9.2-1.5.9-1.6 1.5-1.3.8.4zm30.5 3.4c1.2 0 1.1-.3-.5-.9-2.8-1.1-2.9-1.7-.5-1.5 2.8.2 4.1 1.4 3.7 3.5-.2 1.1 0 2.2.5 2.5.5.3.7-.4.5-1.5-.2-1.2.2-2.3 1-2.7.8-.3 1.3-.8 1-1.2-.2-.4.2-.8 1-.8 1.9 0 1.9.2-.1 3.5-1.1 1.8-1.2 2.2-.2 1 .8-1 1.9-1.4 2.3-1 .5.4.5.2.2-.4-.4-.7.1-1.8 1-2.5 1.5-1.2 1.6-1.2.9.5-.7 2-.7 2 1.5 0 1.2-1 1.9-1.3 1.5-.7-.4.7-.2 1.3.3 1.3.6 0 1.1-.6 1.2-1.3 0-.9.2-.9.6.1.2.6 1 .9 1.6.5 2.2-1.4 3.7-1.1 3.7.5 0 1.5.2 1.5 1 .2 1.2-1.9 4.2-1.9 5.6 0 1 1.2 1.4 1.2 2.8.1 1.6-1.4 10.8-2.2 10-1-.2.4.2.9 1 1.2.8.3 1.3 1.4 1.1 2.4-.2 1-.4 2.4-.4 3.2-.1 1-.4 1.1-1.4.2-.8-.6-1.6-.9-1.9-.6-1.1 1.1-9.4.8-11.6-.3-1.9-1.1-2.3-1-2.8.2-.5 1.4-.9 1.3-3 0-2.2-1.5-2.4-1.5-3 0-.6 1.5-.9 1.5-2.3.3-1.6-1.5-4.7-1.5-5.9-.1-.4.4.1.4 1.1.1 1-.4 1.6-.3 1.2.2-.3.6-1.4.9-2.5.8-1-.1-1.6-.5-1.4-.9.3-.4-.9-.5-2.5-.2-2 .4-3.7.1-4.8-.7-1.5-1.2-1.6-1.2-1.1.3.7 1.7-1.4 2-2.9.3-.4-.4-.2-.5.6 0 1 .6 1.2.4.6-.5-.6-1-1.1-.9-2.2.6-1.3 1.8-1.4 1.6-1-1.3.3-1.8.1-3.5-.4-3.9-.5-.3-.7-1-.4-1.5.4-.5 1.3-.3 2.1.6.9.8 2.3 1.5 3.2 1.4zM183 112c0 .5-.5 1-1.1 1-.5 0-.7-.5-.4-1 .3-.6.8-1 1.1-1 .2 0 .4.4.4 1zm39 24.1c0 .5-.4.9-.8.9-.5 0-.9-.7-.9-1.5s.4-1.2.9-.9c.4.3.8.9.8 1.5zm0 32c0 .5-.4.9-.8.9-.5 0-.9-.7-.9-1.5s.4-1.2.9-.9c.4.3.8.9.8 1.5zm0 12c0 .5-.4.9-.8.9-.5 0-.9-.7-.9-1.5s.4-1.2.9-.9c.4.3.8.9.8 1.5z"/><path d="M171 112.9c0 .5.5 1.3 1 1.6.6.3 1 .2 1-.4 0-.5-.4-1.3-1-1.6-.5-.3-1-.2-1 .4zM176 112.4c0 .3.9 1 2 1.6 1.1.6 2 .8 2 .6 0-.3-.9-1-2-1.6-1.1-.6-2-.8-2-.6zM185.5 113c-.3.5-.1 1 .4 1 .6 0 1.1-.5 1.1-1 0-.6-.2-1-.4-1-.3 0-.8.4-1.1 1zM191 114c0 .5.5 1 1.1 1 .5 0 .7-.5.4-1-.3-.6-.8-1-1.1-1-.2 0-.4.4-.4 1zM165.5 114.8c1.8 1.7 5.5 2.4 5.5 1.1 0-.7-.3-1-.6-.6-.3.3-1.8.1-3.3-.4-1.5-.6-2.2-.6-1.6-.1zM175 116c0 .5.5 1 1 1 .6 0 1-.5 1-1 0-.6-.4-1-1-1-.5 0-1 .4-1 1zM183 116.1c0 .5.5.7 1 .4.6-.3 1-.8 1-1.1 0-.2-.4-.4-1-.4-.5 0-1 .5-1 1.1zM187.6 116.6c-.3.8-1.1 1.2-1.7.8-.8-.4-.9-.3-.5.4.9 1.5 3.6.4 3.6-1.4 0-1.9-.6-1.8-1.4.2zM137 7.9c0 .6.4 1.3 1 1.6.6.3.7-.1.4-.9-.7-1.8-1.4-2.1-1.4-.7zM156.6 8.3c.3 1 .9 1.5 1.2 1.2.3-.3 0-1.1-.7-1.8-1-.9-1.1-.8-.5.6zM177.5 8.1c-.4.6-.5 1.2-.2 1.5.2.3.7-.2 1-1.1.7-1.7.1-2-.8-.4zM185 7.9c0 .6.4 1.3 1 1.6.6.3.7-.1.4-.9-.7-1.8-1.4-2.1-1.4-.7zM204.6 8.3c.3 1 .9 1.5 1.2 1.2.3-.3 0-1.1-.7-1.8-1-.9-1.1-.8-.5.6zM214.6 8.2c.3.5 1 .6 1.5.3 1.3-.9 1.1-1.2-.6-1.2-.8 0-1.2.4-.9.9zM252.6 8.3c.3 1 .9 1.5 1.2 1.2.3-.3 0-1.1-.7-1.8-1-.9-1.1-.8-.5.6zM273.5 8.1c-.4.6-.5 1.2-.2 1.5.2.3.7-.2 1-1.1.7-1.7.1-2-.8-.4zM281 7.9c0 .6.4 1.3 1 1.6.6.3.7-.1.4-.9-.7-1.8-1.4-2.1-1.4-.7zM300.6 8.3c.3 1 .9 1.5 1.2 1.2.3-.3 0-1.1-.7-1.8-1-.9-1.1-.8-.5.6zM344.5 7.9c-.3.5-.2 1.2.3 1.5.5.3.9-.1.9-.9 0-1.7-.3-1.9-1.2-.6zM348.6 8.3c.3 1 .9 1.5 1.2 1.2.3-.3 0-1.1-.7-1.8-1-.9-1.1-.8-.5.6z"/><path d="M362.5 9.2c-.6 1.9-.8 2-1.2.6-.4-1.5-.8-1.5-3.7-.3-2 .8-3.8 1-4.6.5-.9-.6-1.7-.5-2.1.2-.6.9-1.1.9-2.2 0-.7-.7-1.7-.8-2.1-.4-1.1 1-3 .9-3.8-.3-.5-.6-1.2-.5-2 .4-1.1 1.2-1 1.3.2.6.8-.5 1.3-.6 1-.2-.3.3-.8.6-1.3.6-1.3.1-3.5 2.6-3 3.3.4.7-1.1 1.2-2.9 1-.3-.1-.9.5-1.2 1.3-.4 1.1 0 1.2 1.7.6 2.2-.8 2.3-.7 2.1 3.5-.2 4.2-2.4 8-3.9 6.6-.5-.4-.5-.1-.1.6.6.9 1.1 1 2 .3.7-.6 1.6-.8 1.9-.4.4.3-.1 1.2-1.1 2-.9.8-1.1 1.2-.4.8.8-.4 1.2.1 1.2 1.5 0 1.3-.4 1.9-1.2 1.4-.7-.5-.8-.3-.3.6.6 1 .4 1.2-.9.7-1.1-.4-1.5-.3-1.1.4.4.6 1.3.8 2.1.5.7-.3 1.6-.1 1.9.4.4.6-.1 1-1 1-1.5 0-1.5.1 0 1.6 1.4 1.5 1.4 1.7-.2 3.1-1.5 1.2-1.5 1.4-.2 1 1.3-.4 1.5-.1 1.2 1.4-.3 1-1 1.9-1.7 1.9-.6 0-.3.5.6 1.1 1.3.7 1.5 1.5.9 3.2-.6 1.4-.5 3 .1 4.2.9 1.5.8 1.7-.5 1.2-1.1-.4-1.5 0-1.4 1.3.1 1.2.5 1.6 1.2 1 .8-.6 1.1.2 1 2.8 0 2.6-.6 4.1-2 5-2 1.3-2 1.3.2.9 1.9-.4 2.1-.2 1.3 1.9-.6 1.4-.6 2.6 0 2.9.5.3.6 1.5.1 2.8-.6 1.4-.5 3 .1 4.2.9 1.5.8 1.7-.6 1.2-1.9-.8-2.1 0-.3 1.7 1 1.1 1.3 3.5.8 9.2 0 .9-.6 1.2-1.3.8-.6-.4-.4.3.4 1.5 1.6 2.2 1.6 7.1.1 11.1-.3.8-.8 2.4-1 3.5-.2 1.6-.1 1.7.6.5.5-.8.7-1.8.4-2.4-.3-.5-.1-.6.6-.2.7.5.9 1.6.5 2.8-.4 1.4-.2 1.8.5 1.4.6-.4 1.1-.2 1.1.3 0 .6.7 1.1 1.6 1.1.9 0 1.2.5.8 1.2-.5.8 0 .7 1.1-.2 1.1-.9 1.6-1 1.1-.3-.4.7-.3 1.3.1 1.3.5 0 1.5-.6 2.2-1.3 1.1-1 1.3-1 .7 0-.9 1.6-.1 1.6 2.5.3 1.5-.8 1.9-.7 1.9.5 0 .8.5 1.5 1.1 1.5.5 0 .8-.4.5-.9-.3-.5.1-1.2 1-1.5 1.2-.5 1.4-.1.9 1.5-.7 2-.6 2 1.6-.2 1.4-1.4 2.4-1.8 2.7-1.1.2.7.8 1.2 1.3 1.2.6 0 .7-.6.3-1.3-.6-1-.4-1 .7 0 1.6 1.6 3.3 1.7 2.3.2-.3-.6.6-.3 2.2.7 2.8 1.8 2.9 1.8 1.4 0-1.4-1.8-1.4-1.9.7-.8 2.6 1.4 3.6 1.5 2.9.4-.3-.5.1-.9.9-.9s1.2.4.9.9c-.8 1.3 1 1 2.5-.5 1.2-1 1.3-.9.7.7-.7 2-.7 2 1.5 0 1.2-1 1.9-1.4 1.6-.7-.5.7-.1 1.2 1 1.2 2.4 0 4.5.5 6.3 1.5 1.2.7 1.3.6.3-.5-2.4-2.5-1.3-3 2-.8 2.8 2 3 2.1 1.4.3-1.4-1.7-1.5-2.1-.2-2.1.8 0 1.5.3 1.5.6 0 .4 1 1.2 2.3 2 1.7 1 1.9 1.1 1 0-2-2-1.5-3.4.5-1.7.9.8 2.4 1.8 3.2 2.2.9.5.8.2-.2-.7-2.2-1.7-2.3-2.4-.3-2.4.8 0 1.5.3 1.5.7 0 .4.7.7 1.5.7s1.5-.5 1.5-1.1c0-.6.4-.5.9.3.6.9 1.4 1 2.2.5 1.9-1.2 9.2-1.1 10.1 0 .4.6 1.4.4 2.4-.5 1.1-.9 1.5-.9 1-.2-.4.7-.2 1.3.3 1.3.6 0 1.1-.6 1.1-1.3 0-.8.3-.9.8-.1 1.3 2 5 3.5 5.7 2.3.4-.6.4-1.3.1-1.6-.3-.4-.6-.1-.6.5s-.7.9-1.5.6c-2.7-1.1-1.6-1.9 2.4-1.9 2.2 0 3.7.3 3.4.7-.7 1.3 1.2.9 2.6-.5 1.1-1 1.3-1 .7 0-.4.7-.4 1.3-.1 1.3.9 0 3.1-2.3 3.2-3.5.1-.5.7-1.1 1.5-1.3 1-.3 1-.2-.1.6-.9.7-1 1.2-.2 1.6 1 .7 1.6-.7 1.1-2.9-.5-2.9-.2-12.6.5-13.3.5-.4.5 0 0 .8-.6 1.2-.5 1.3.5.3 1.2-1.1 1.1-1.5-.6-2.8-1.2-.9-1.4-1.4-.6-1.5.7 0 1-.5.6-1.1-.3-.6-.6-6-.7-12 0-8.8.3-11.3 1.7-12.7 1.3-1.6 1.4-1.9.1-1.9-.8 0-1.1.5-.8 1.1.3.6.2.8-.2.3-1.2-1.1-1.2-19.7 0-19.8.6-.1 1.4-.1 1.8 0 .5.1.5-.3.2-.9-.4-.6-1.2-.9-1.9-.7-.7.3-1.1-.5-1-2.2.1-1.9.6-2.6 2-2.4 1.6.1 1.5-.2-.6-1.9-1.4-1.1-1.8-1.8-.9-1.5.9.3 1.6-.1 1.6-.9 0-.7-.4-1.1-.9-.8-.5.3-.9-2-.8-5.3.1-3.2-.1-7.5-.3-9.6-.4-2.9-.2-3.7 1.1-3.7s1.2-.3-.4-1.4c-1.4-1.1-2.1-1.1-2.7-.3-.6.8-.7.7-.4-.3.6-2.2-3.1-5.2-5.2-4.1-.9.5-1.9.9-2.3 1-.5.1-.9.1-1 .2-3.4 1.1-5.3.2-4.9-2.4 0-.4-.4-.7-1-.7s-.9.7-.6 1.5c.4.8.1 1.7-.5 2.1-.7.4-.8.3-.4-.4s.3-1.2-.3-1.2c-.5 0-1.1.5-1.3 1.1-.2.7-1.2.7-3.1 0-1.7-.7-2.7-.7-2.7-.1s-.4 1-.9 1-.7-1-.5-2.3c.4-2 .4-2-.7.3-1 2-1.3 2.2-1.6.8-.4-1.5-.8-1.5-3.6-.3-2.1.9-3.8 1-4.9.4-1.2-.7-1.8-.6-1.8.1 0 1.1-4.1.7-6.1-.6-.6-.3-1.5-.1-1.9.7-.7 1-1.2 1-2.3.1-.7-.7-1.7-.9-2.1-.5-.3.4-1.4.8-2.4.9-1.5.2-1.4.1.2-1.2 2.3-1.6 1.4-1.9-1.4-.4-4.6 2.5-8.6 1.8-8.1-1.3 0-.4-.4-.7-1-.7s-.9.7-.6 1.5c.4.8.1 1.7-.5 2.1-.7.4-.8.3-.4-.4s.3-1.2-.3-1.2c-.5 0-1.1.5-1.3 1.1-.2.7-1.2.7-3.1 0-1.7-.7-2.7-.7-2.7-.1s-.4 1-.9 1-.7-.9-.4-2c.7-2.7-.3-2.5-1.2.2zm70.5.8c0 .5-.5 1-1.1 1-.5 0-.7-.5-.4-1 .3-.6.8-1 1.1-1 .2 0 .4.4.4 1z"/><path d="M369.5 8.1c-.4.6-.5 1.2-.2 1.5.2.3.7-.2 1-1.1.7-1.7.1-2-.8-.4zM377 7.9c0 .6.4 1.3 1 1.6.6.3.7-.1.4-.9-.7-1.8-1.4-2.1-1.4-.7zM396.6 8.3c.3 1 .9 1.5 1.2 1.2.3-.3 0-1.1-.7-1.8-1-.9-1.1-.8-.5.6zM417.5 8.1c-.4.6-.5 1.2-.2 1.5.2.3.7-.2 1-1.1.7-1.7.1-2-.8-.4zM223.6 16.6c-.8 2-.8 2.4.2 2.4.4 0 .8-.9.9-2 .2-2.4-.3-2.6-1.1-.4zM439.7 17.1c.7.7 1.5 1 1.8.7.3-.3-.2-.9-1.2-1.2-1.4-.6-1.5-.5-.6.5zM331 20.5c0 .8.4 1.5 1 1.5.5 0 .7-.7.4-1.5-.4-.8-.8-1.5-1-1.5-.2 0-.4.7-.4 1.5zM439.6 19.8c-.3.5.1.9.9.9s1.2-.4.9-.9c-.3-.4-.7-.8-.9-.8-.2 0-.6.4-.9.8zM335.5 23c-.4.6-1 .8-1.5.5-.5-.3-1.1-.1-1.4.4-.8 1.3 2.2.7 3.6-.7.7-.7.9-1.2.6-1.2-.4 0-1 .5-1.3 1zM117 26c0 .5.5 1 1.1 1 .5 0 .7-.5.4-1-.3-.6-.8-1-1.1-1-.2 0-.4.4-.4 1zM223 26c0 .5.5 1 1 1 .6 0 1-.5 1-1 0-.6-.4-1-1-1-.5 0-1 .4-1 1zM440.6 27.7c-.6 1.4-.5 1.5.5.6.7-.7 1-1.5.7-1.8-.3-.3-.9.2-1.2 1.2zM222 35.4c0 .2.7.7 1.6 1 .8.3 1.2.2.9-.4-.6-1-2.5-1.4-2.5-.6zM330.5 35.9c-.3.5-.2 1.2.3 1.5.5.3.9-.1.9-.9 0-1.7-.3-1.9-1.2-.6zM226.4 37.1c-.3.6-.2 1.5.3 2s.9.1.9-1.1c0-2.3-.2-2.4-1.2-.9zM116 38.4c0 .2.7.7 1.6 1 .8.3 1.2.2.9-.4-.6-1-2.5-1.4-2.5-.6zM221.5 40c-.7 1.1 2.2 2.6 3.2 1.6.4-.3-.1-.6-1.1-.6-.9 0-1.4-.5-1.1-1 .3-.6.4-1 .1-1-.3 0-.8.5-1.1 1zM332.5 40.1c-.3.4.2.6 1 .5 2.1-.3 2.8-1.3 1-1.3-.9 0-1.8.4-2 .8zM117 42c0 .5.5 1 1.1 1 .5 0 .7-.5.4-1-.3-.6-.8-1-1.1-1-.2 0-.4.4-.4 1zM333.7 44.1c.7.7 1.5 1 1.8.7.3-.3-.2-.9-1.2-1.2-1.4-.6-1.5-.5-.6.5zM223 47c-.9.6-1 1-.3 1 .6 0 1.5-.5 1.8-1 .8-1.2.4-1.2-1.5 0zM440 48.1c0 .5.5.7 1 .4.6-.3 1-.8 1-1.1 0-.2-.4-.4-1-.4-.5 0-1 .5-1 1.1zM226.3 50.7c-1.5.5-1.7 2.3-.4 2.3.5 0 1.1-.7 1.5-1.5.3-.8.4-1.5.3-1.4-.1 0-.8.3-1.4.6zM333.7 51.1c.7.7 1.5 1 1.8.7.3-.3-.2-.9-1.2-1.2-1.4-.6-1.5-.5-.6.5zM117.3 52.5c0 .8.4 1.2.9.9.5-.3.6-1 .3-1.5-.9-1.3-1.2-1.1-1.2.6zM221.5 51.9c-.6 1.1 1.3 2.6 2.2 1.7.4-.3.1-.6-.6-.6s-.9-.5-.6-1c.3-.6.4-1 .1-1-.3 0-.7.4-1.1.9zM330.5 51.9c-.3.5-.2 1.2.3 1.5.5.3.9-.1.9-.9 0-1.7-.3-1.9-1.2-.6zM117 58c0 .5.5 1 1.1 1 .5 0 .7-.5.4-1-.3-.6-.8-1-1.1-1-.2 0-.4.4-.4 1zM222 59.4c0 .2.7.7 1.6 1 .8.3 1.2.2.9-.4-.6-1-2.5-1.4-2.5-.6zM226.4 61.1c-.3.6-.2 1.5.3 2s.9.1.9-1.1c0-2.3-.2-2.4-1.2-.9zM333.6 60.9c-.4.5.3.7 1.4.4 2.3-.6 2.6-1.3.6-1.3-.8 0-1.7.4-2 .9zM221.5 64c-.7 1.1 2.2 2.6 3.2 1.6.4-.3-.1-.6-1.1-.6-.9 0-1.4-.5-1.1-1 .3-.6.4-1 .1-1-.3 0-.8.5-1.1 1zM331.5 64c.3.5.8 1 1.1 1 .2 0 .4-.5.4-1 0-.6-.5-1-1.1-1-.5 0-.7.4-.4 1zM439.9 68.2c-.5 1.8-.6 3.8-.1 3.4.7-.8 1.2-3.6.6-3.6-.2 0-.4.1-.5.2zM116 70.4c0 .2.7.7 1.6 1 .8.3 1.2.2.9-.4-.6-1-2.5-1.4-2.5-.6zM223 71c-.9.6-1 1-.3 1 .6 0 1.5-.5 1.8-1 .8-1.2.4-1.2-1.5 0zM117 74c0 .5.5 1 1.1 1 .5 0 .7-.5.4-1-.3-.6-.8-1-1.1-1-.2 0-.4.4-.4 1zM226.3 74.7c-1.5.5-1.7 2.3-.4 2.3.5 0 1.1-.7 1.5-1.5.3-.8.4-1.5.3-1.4-.1 0-.8.3-1.4.6zM333.7 75.1c.7.7 1.5 1 1.8.7.3-.3-.2-.9-1.2-1.2-1.4-.6-1.5-.5-.6.5zM221.5 75.9c-.6 1.1 1.3 2.6 2.2 1.7.4-.3.1-.6-.6-.6s-.9-.5-.6-1c.3-.6.4-1 .1-1-.3 0-.7.4-1.1.9zM330.5 75.9c-.3.5-.2 1.2.3 1.5.5.3.9-.1.9-.9 0-1.7-.3-1.9-1.2-.6zM439.6 82.7c-.6 1.4-.5 1.5.5.6.7-.7 1-1.5.7-1.8-.3-.3-.9.2-1.2 1.2zM117.3 84.5c0 .8.4 1.2.9.9.5-.3.6-1 .3-1.5-.9-1.3-1.2-1.1-1.2.6zM222 83.4c0 .2.7.7 1.6 1 .8.3 1.2.2.9-.4-.6-1-2.5-1.4-2.5-.6zM226.4 85.1c-.3.6-.2 1.5.3 2s.9.1.9-1.1c0-2.3-.2-2.4-1.2-.9zM333 86.6c0 .2.9.8 2 1.4 1.1.6 2 .7 2 .2 0-.6-.9-1.2-2-1.5-1.1-.3-2-.3-2-.1zM117 90c0 .5.5 1 1.1 1 .5 0 .7-.5.4-1-.3-.6-.8-1-1.1-1-.2 0-.4.4-.4 1zM223 92c-1.2.7-1 .9.7.7 1.2 0 1.9-.5 1.7-.9-.6-1-.6-1-2.4.2zM334.7 94.7c.5 1.2.3 1.4-.8.8-.8-.5-1.1-.4-.6 0 .4.5 1.4 1 2.2 1.1 1.2.2 1.2-.2.5-1.7-1.3-2.3-2.2-2.5-1.3-.2zM223 98c0 .5.5 1 1 1 .6 0 1-.5 1-1 0-.6-.4-1-1-1-.5 0-1 .4-1 1zM330 98.1c0 .4.6.9 1.3 1.2.8.3 1.4 0 1.4-.7s-.6-1.3-1.4-1.3c-.7 0-1.3.4-1.3.8zM117.2 103.4c.7.8 1.5 1.2 1.7 1.1.5-.6-1-2.5-2-2.5-.5 0-.4.6.3 1.4zM223.9 102.2c-.5 1.8-.6 3.8-.1 3.4.7-.8 1.2-3.6.6-3.6-.2 0-.4.1-.5.2zM223 108c0 .5.5 1 1 1 .6 0 1-.5 1-1 0-.6-.4-1-1-1-.5 0-1 .4-1 1zM227 110c0 .5.5 1 1.1 1 .5 0 .7-.5.4-1-.3-.6-.8-1-1.1-1-.2 0-.4.4-.4 1zM133 113.4c.7.7 1.3.7 2 0 .6-.6.3-1-1-1s-1.6.4-1 1zM137.5 113c-.3.5-.1 1 .4 1 .6 0 1.1-.5 1.1-1 0-.6-.2-1-.4-1-.3 0-.8.4-1.1 1zM410.5 113.1c-.4.6-.5 1.2-.2 1.5.2.3.7-.2 1-1.1.7-1.7.1-2-.8-.4zM143 114c0 .5.5 1 1.1 1 .5 0 .7-.5.4-1-.3-.6-.8-1-1.1-1-.2 0-.4.4-.4 1zM213.3 114.5c-.3.9-.3 1.8-.1 2.1.3.3.8-.4 1.1-1.6.6-2.3-.1-2.7-1-.5zM260.6 113.8c-.3.5.1.9.9.9s1.2-.4.9-.9c-.3-.4-.7-.8-.9-.8-.2 0-.6.4-.9.8zM292.6 113.8c-.3.5.1.9.9.9s1.2-.4.9-.9c-.3-.4-.7-.8-.9-.8-.2 0-.6.4-.9.8zM356.6 113.8c-.3.5.1.9.9.9s1.2-.4.9-.9c-.3-.4-.7-.8-.9-.8-.2 0-.6.4-.9.8zM405.5 114c.3.5.8 1 1.1 1 .2 0 .4-.5.4-1 0-.6-.5-1-1.1-1-.5 0-.7.4-.4 1zM412.6 113.8c-.3.5.1.9.9.9s1.2-.4.9-.9c-.3-.4-.7-.8-.9-.8-.2 0-.6.4-.9.8zM127.3 115.5c0 .8.4 1.5.9 1.5.4 0 .8-.4.8-.9 0-.6-.4-1.2-.8-1.5-.5-.3-.9.1-.9.9zM206.7 115.4c-.4.9-.3 1.5.2 1.1.5-.3 1.1-.1 1.3.5.2.6.9 0 1.7-1.2 1.3-2.1 1.3-2.2-.1-1-1.3 1-1.7 1-2 0-.3-.8-.7-.6-1.1.6zM135 116.1c0 .5.5.7 1 .4.6-.3 1-.8 1-1.1 0-.2-.4-.4-1-.4-.5 0-1 .5-1 1.1zM140.1 116.6c0 1.1.3 1.4.6.6.3-.7.2-1.6-.1-1.9-.3-.4-.6.2-.5 1.3zM137.5 118c.3.5.8 1 1.1 1 .2 0 .4-.5.4-1 0-.6-.5-1-1.1-1-.5 0-.7.4-.4 1zM221 131.4c0 .2.7.7 1.6 1 .8.3 1.2.2.9-.4-.6-1-2.5-1.4-2.5-.6zM221.5 152.1c-.3.4.2.6 1 .5 2.1-.3 2.8-1.3 1-1.3-.9 0-1.8.4-2 .8zM221 163.5c0 .7 3 1.3 3.4.7.3-.4-.4-.9-1.5-.9-1-.1-1.9 0-1.9.2zM221 175.5c0 .7 3 1.3 3.4.7.3-.4-.4-.9-1.5-.9-1-.1-1.9 0-1.9.2zM221.5 187.9c-.6 1.1 1.3 2.6 2.2 1.7.4-.3.1-.6-.6-.6s-.9-.5-.6-1c.3-.6.4-1 .1-1-.3 0-.7.4-1.1.9zM223.3 192.5c0 .8.4 1.2.9.9.5-.3.6-1 .3-1.5-.9-1.3-1.2-1.1-1.2.6zM223.3 196.9c0 1.1.5 1.8.9 1.5.4-.3.5-1.1.1-1.9-.7-2.1-1.2-1.9-1 .4zM223 212.1c0 .5.5.7 1 .4.6-.3 1-.8 1-1.1 0-.2-.4-.4-1-.4-.5 0-1 .5-1 1.1zM118 219.4c0 .2.8 1 1.8 1.7 1.5 1.3 1.6 1.2.3-.4s-2.1-2.1-2.1-1.3zM219 219.9c0 .6.4 1.3 1 1.6.6.3.7-.1.4-.9-.7-1.8-1.4-2.1-1.4-.7zM135.4 222.1c-.4.7-.3.9.4.5.6-.3 1.3.2 1.5 1.1.4 1.6.5 1.6.6.1.1-2.1-1.5-3.2-2.5-1.7zM147.4 222.2c-.4.7-.4 1 .1.6.4-.4 1.4 0 2.2 1 1.3 1.5 1.3 1.5.3-.6-1.2-2.5-1.6-2.7-2.6-1zM159.4 222.1c-.4.7-.3.9.4.5.5-.3 1.3 0 1.5.6.4.9.6 1 .6.1.1-1.7-1.6-2.5-2.5-1.2zM171.4 222.2c-.4.7-.3.8.4.4 1.6-1 1.5.6 0 2.4-1.1 1.2-1 1.2.3.2.9-.6 1.9-.8 2.4-.4.4.4.2-.3-.4-1.6-1.3-2.5-1.7-2.7-2.7-1zM199.4 222.1c-.4.7-.3.9.4.5.6-.3 1.3.2 1.5 1.1.4 1.6.5 1.6.6.1.1-2.1-1.5-3.2-2.5-1.7z"/><path d="M127 222.9c0 .7-.4 1-.9.6-.6-.3-.8.3-.6 1.4.2 1.1-.7 2.8-2.3 4.2l-2.7 2.4 2-2.4 2-2.5-2.6 2c-1.6 1.1-2.5 2.6-2.3 3.7.2 1-.1 1.5-.8 1.1-.6-.4-.8.1-.5 1.2 1 3.2 1.1 12.3.2 13.1-.4.5-.5.3-.1-.4.3-.6.3-1.4-.2-1.7-.4-.2-.8.6-.8 1.9 0 1.3.3 2.2.7 1.9.4-.2 1 .3 1.3 1.2.4 1.1.2 1.5-.7 1.1-.8-.3-1.4.1-1.4.9 0 .7.4 1.1.8.8.4-.2 1 0 1.4.6.3.5-.2 1-1.1 1-1.6 0-1.6.1.2 1.6 1.6 1.3 1.6 1.5.2 1-1-.3-1.8-.3-1.8.1 0 .3.8 1.2 1.8 1.9 1 .8 1.2 1.3.5 1.4-.7 0-1.3.5-1.3 1.1 0 .5.4.8.9.5 1.1-.7.8 2.1-.4 3.1-.4.4-.5.2 0-.6.5-.9.4-1.2-.3-.8-.5.4-.9 1.5-.7 2.5.2.9.4 2.1.4 2.5.1.5.5.6.9.3.4-.2.8.6.8 1.9 0 1.3-.4 2.1-.8 1.9-.5-.3-.5-1-.2-1.6.4-.7.2-.8-.4-.4-.9.5-.8 1.5.4 3.8 1.3 2.6 1.4 3 .2 2.5-.8-.3-2.1-.1-2.9.5-1.1.8-1.1.9.3.4 1.7-.5 3.1.7 3.4 3.1.1.7-.4 1.3-1.2 1.3-.8 0-1.4.5-1.4 1.1 0 .5.4.8.9.5.5-.4 1.1 1.9 1.3 5 .1 3.1-.1 5.8-.6 6.2-.5.3-.6 0-.2-.6.3-.6.3-1.3-.2-1.6-.4-.2-.8.6-.8 1.9 0 1.3.3 2.2.7 1.9.4-.2 1 .3 1.3 1.2.4 1.1.2 1.5-.7 1.1-.8-.3-1.4.1-1.4.9 0 .7.4 1.1.8.8.4-.2 1 0 1.4.6.3.5-.2 1-1.1 1-1.6 0-1.6.1.2 1.6 1.6 1.3 1.6 1.5.2 1-1-.3-1.8-.3-1.8.1 0 .3.8 1.2 1.8 1.9 1 .8 1.2 1.3.5 1.4-.7 0-1.3.5-1.3 1.1 0 .5.4.8.9.5 1.1-.7.8 2.1-.4 3.1-.4.4-.5.2 0-.6.5-.9.4-1.2-.3-.8-.5.4-.9 1.5-.7 2.5.2.9.4 2.1.4 2.5.1.5.5.6.9.3.5-.3.7 1.5.4 4-.3 3.6 0 4.8 1.7 6.3 1.6 1.4 1.8 2 .8 3.1-.7.7.1.5 1.6-.5l2.8-1.8-.5 2.7c-.4 2.2-.2 2.5.8 1.7.7-.6 1.7-.7 2.2-.3.4.4.3 0-.4-.9-.6-.9-.9-1.9-.5-2.3.4-.4 1.2.3 1.8 1.5 1.1 1.9 1.3 1.9 1.8.5.5-1.2.3-1.5-.6-1-.6.4-.8.3-.4-.1.4-.5 1.4-1 2.2-1.1 1.1-.2 1.4.5 1.1 2.3-.4 2-.3 2.3.9 1.3.8-.7 1.3-1.6 1-2-.3-.5 0-1.2.6-1.6.8-.5.9-.3.4.6-.6 1-.4 1.2 1.1.6 2.8-1.1 8.4-1.4 7.8-.4-.3.4-1 .5-1.6.2-.7-.4-.8-.2-.4.4.4.6 1.4.8 2.4.5 1.4-.6 1.5-.4.4.9-1 1.3-1 1.8-.1 2.4.7.4.9.3.6-.3-.9-1.4 1.3-3.2 5.2-4.3 2.6-.7 3.1-.6 3.2.8 0 1.4.2 1.3.9-.3.6-1.4.9-1.6 1-.5.2.8.2 1.9.1 2.3-.1.5.3.6.9.2.6-.3.8-1.1.5-1.6-.7-1-.6-1 7.3-1.3 2.9-.1 5.6.2 5.9.6.2.5 1 .5 1.6-.1 1.8-1.5 3.1-1.2 4.3 1.1 1 1.8 1.2 1.8 1.7.4.5-1.2.3-1.5-.6-1-.6.4-.8.3-.4-.1.4-.5 1.4-1 2.2-1.1 1.1-.2 1.4.5 1.1 2.3-.4 2-.3 2.3.9 1.3.8-.7 1.3-1.6 1-2-.3-.5 0-1.2.6-1.6.8-.5.9-.3.4.6-.6 1-.4 1.2 1.1.6 2.9-1.2 6.4-1.4 5.8-.5-.6 1.1 1 1.2 2 .2 1-1.1 3.6-1.2 3.6-.2 0 .5-.8.9-1.7 1-1.2 0-1.3.2-.5.6.7.3 1.9 0 2.6-.6 1.8-1.5 5.6-2.2 5.6-1.1 0 1.5-1.8 2.1-2.2.8-.3-.7-.7-.8-1.1-.2-.3.5.3 1.6 1.5 2.3 1.1.7 1.7.8 1.4.3-.3-.5.4-1.8 1.5-2.8 2-1.8 2-1.8 1.5 1.1-.6 2.6-.5 2.7.3.7.6-1.2 1.4-2.3 1.8-2.3 3.8-.6 5.3-.5 5.3.7 0 .7.4 1.6 1 1.9.5.3.7 0 .4-.8-.3-.8 0-1.8.7-2.3.8-.4 1-.3.5.4-.4.7-.3 1.2.3 1.2.5 0 1.3-1 1.6-2.1.5-1.5 1-1.8 1.5-.9 1 1.6 1.6-1.3 1.5-7.2-.1-4 .1-4.5 1.4-3.5 1.2 1 1.3.9.1-1.3-.8-1.4-1.4-3.7-1.5-5.2-.1-2.2.2-2.5 1.4-1.5s1.2.9.1-1.3c-.8-1.4-1.4-3.7-1.5-5.2-.1-2.2.2-2.5 1.4-1.5s1.2.9.1-1.3c-.8-1.4-1.4-3.7-1.5-5.2-.1-2.2.2-2.5 1.4-1.5s1.2.9.1-1.3c-1.9-3.3-2-4.9-.8-5.7.7-.4.8-.1.3.7-.6.9-.4 1.1.5.5 1-.6.9-1.1-.4-2.1-1.2-.8-1.3-1.3-.5-1.6.7-.2 1.4-1.5 1.6-2.9.2-1.8.1-2-.6-.9-.5.8-.7 1.9-.4 2.5.4.5.3.7-.1.3-.5-.4-.8-10.9-.7-23.4 0-17.5.3-22.9 1.3-23.5.9-.6.7-.9-.7-1-1.1 0-1.4-.3-.8-.6.9-.3 1-1 .3-2.2-.5-1-.6-2.2-.2-2.6.4-.4-.4-.2-1.8.5-2.2 1.2-2.4 1.2-1.2-.3 1.1-1.3 1-1.7-.7-2.6-2.8-1.6-3.8-1.3-1.5.3 1.6 1.3 1.7 1.4.2 1.2-1-.1-2.1-.5-2.4-.9-.4-.4-1.4-.1-2.2.6-1.3 1-1.5.9-.9-.6.3-.9.2-1.7-.3-1.7-.6 0-1 .7-1 1.5 0 1.8-1.6 2-2.6.3-.5-.7-.3-.8.6-.3.8.5 1.1.4.6-.3-.4-.6-1.3-.9-2.1-.6-.8.4-1.3.9-1 1.3.2.4-.2.8-1 .8s-1.2-.4-1-.8c1-1.5-2.5-1.8-4-.3-.8.9-1.5 1.1-1.5.6 0-.5-1.2-1.4-2.7-2.1-2.4-1-2.6-1-1 .2 2.2 1.8 2.2 2.3-.2 2.3-1.1 0-1.7-.4-1.5-.8.3-.4.1-.8-.5-.8-.5 0-1.2.4-1.5.9-.4.5-1.4.8-2.4.6-.9-.2-2.1-.4-2.6-.4-.5-.1-.2-.9.5-1.9 1.2-1.5 1.2-1.6-.2-.5-.9.7-1.9 1-2.3.6-.4-.4-.4.1 0 1.2.7 1.7.5 1.8-.7.8s-1.8-1-2.9 0c-1 1-1.2.9-.7-.6.4-.9.2-1.7-.3-1.7-.6 0-1 .7-1 1.5 0 1.8-1.6 2-2.6.3-.5-.7-.3-.8.6-.3.8.5 1.1.4.6-.3-.4-.6-1.3-.9-2.1-.6-.8.4-1.3.9-1 1.3.2.4-.2.8-1 .8s-1.2-.4-1-.8c1-1.5-2.5-1.8-4-.3-.8.9-1.5 1.1-1.5.6 0-.5-1.2-1.4-2.7-2.1-2.4-1-2.6-1-1 .2 2.2 1.8 2.2 2.3-.2 2.3-1.1 0-1.7-.4-1.5-.8.3-.4.1-.8-.5-.8-.5 0-1.2.4-1.5.9-.4.5-1.4.8-2.4.6-.9-.2-2.1-.4-2.6-.4-.5-.1-.2-.9.5-1.9 1.2-1.5 1.2-1.6-.2-.5-.9.7-1.9 1-2.3.6-.4-.4-.4.1 0 1.2.6 1.6.4 1.8-.6.8-1.1-1-1.7-1-2.9 0s-1.4.9-.8-.6c.3-.9.2-1.7-.3-1.7-.6 0-1 .7-1 1.5 0 1.8-1.6 2-2.6.3-.5-.7-.3-.8.6-.3.8.5 1.1.4.6-.3-.4-.6-1.3-.9-2.1-.6-.8.4-1.3.9-1 1.3.2.4-.2.8-1 .8s-1.2-.4-1-.8c1-1.5-2.5-1.8-4-.3-.9.9-1.5 1.1-1.5.4 0-.6-.5-.8-1.2-.4s-2.2.8-3.5.9c-2.3.1-2.6-1.6-.9-4.3.4-.7.5-1.6.2-1.9-.3-.4-.6-.1-.6.6zm22 106.5c0 .3-.4.8-1 1.1-.5.3-1 .1-1-.4 0-.6.5-1.1 1-1.1.6 0 1 .2 1 .4z"/><path d="M131 223.4c0 .8.4 1.7.9 2 .5.4.7-.3.4-1.4-.6-2.3-1.3-2.6-1.3-.6zM142.6 223.7c-.6 1.4-.5 1.5.5.6.7-.7 1-1.5.7-1.8-.3-.3-.9.2-1.2 1.2zM179 223.4c0 .8.4 1.7.9 2 .5.4.7-.3.4-1.4-.6-2.3-1.3-2.6-1.3-.6zM195 223.4c0 .8.4 1.7.9 2 .5.4.7-.3.4-1.4-.6-2.3-1.3-2.6-1.3-.6zM206.6 223.7c-.6 1.4-.5 1.5.5.6.7-.7 1-1.5.7-1.8-.3-.3-.9.2-1.2 1.2zM128 225.4c0 .2.7.9 1.5 1.6.9.7 1.5.8 1.5.2 0-.5-.7-1.2-1.5-1.6-.8-.3-1.5-.4-1.5-.2zM154.7 226.4c-.4 1-.1 1.3.9.9 1.5-.6 1.9-2.3.5-2.3-.5 0-1.1.7-1.4 1.4zM186.7 226.4c-.4 1-.1 1.3.9.9 1.5-.6 1.9-2.3.5-2.3-.5 0-1.1.7-1.4 1.4zM241.1 225.8c.3 2.2-.5 2.8-3.5 2.7-1.9 0-3.2-.3-2.9-.8.2-.4 0-.7-.5-.7-.6 0-1.2.7-1.6 1.5-.3.9-1.2 1.2-2.3.8-1-.3-1.5-.3-1.1.2.4.4 0 1.4-1 2.2-.9.8-1.2 1.2-.5.9.6-.3 1 0 .9.8-.3 2.2-2.7 4.6-3.9 3.9-.6-.3-.7-.1-.3.6.6.9 1.1.9 2.1.1.9-.8 1.5-.8 2 0 .3.5.2 1-.4 1-.7 0-.7.9-.1 2.7l1 2.8-2-2.5-2.1-2.5 1.2 2.7c.7 1.6 1.6 2.8 2.1 2.8s.3.7-.6 1.5c-1.5 1.5-1.2 5 .3 4 .4-.2.8.2.8 1s-.4 1.2-.8 1c-.4-.3-.9.2-1.3 1-.3.8 0 1.7.6 2.1.7.5.8.2.3-.6-.5-.9-.4-1.1.3-.6 1.7 1 1.5 2.6-.3 2.6-.8 0-1.5.4-1.5 1 0 .5.8.6 1.8.3 1.4-.6 1.5-.4.5.8-1 1.2-1 1.8 0 2.9 1 1 .8 1.2-.8.6-1.1-.4-1.6-.4-1.2 0 .4.4.1 1.4-.6 2.3-1.1 1.4-1 1.4.6.2.9-.7 1.7-1 1.8-.5 0 .5.2 1.7.4 2.6.2 1-.1 2-.6 2.4-.5.3-.9 1-.9 1.5 0 .6.5.7 1.2.3.7-.4.8-.3.4.5-.4.6-1.2.9-1.7.6-.5-.3-.6.1-.3.9.3.9.9 1.4 1.3 1.2.3-.2.6 1.1.7 3 0 2.2-.4 3.4-1.3 3.4-.7 0-1.3.4-1.3 1 0 .5.8.6 1.8.3 1.4-.6 1.5-.4.5.8-1 1.2-1 1.8 0 2.9 1 1 .9 1.2-.3.8-1.1-.4-1.5.2-1.6 2.1-.1 1.4.1 2 .3 1.3.3-.6.9-1.2 1.4-1.2 1.3 0 .6 2.3-1.1 3.7-.8.6-1.2 1.5-.7 1.9.4.4.7.2.7-.4 0-.7.5-1.2 1.1-1.2.7 0 .5 1-.6 2.6-.9 1.4-1.4 2.8-1.1 3.2.3.3.6 0 .6-.6 0-.7.5-1.2 1-1.2 1.4 0 .8 2.3-1 3.7-.8.6-1.2 1.5-.7 1.9.4.4.7.2.7-.4 0-.7.5-1.2 1.1-1.2.7 0 .5 1-.6 2.6-.9 1.4-1.4 2.8-1.1 3.2.3.3.6 0 .6-.6 0-.7.4-1.2 1-1.2 1.4 0 .8 2.3-1 3.7-.8.6-1.2 1.5-.7 1.9.4.4.7.2.7-.4 0-.7.5-1.2 1.1-1.2.7 0 .5 1-.6 2.6-.9 1.4-1.4 2.8-1.1 3.2.3.3.6 0 .6-.6 0-.7.4-1.2 1-1.2 1.4 0 .8 2.3-1 3.7-.8.6-1.2 1.5-.7 1.9.4.4.7.2.7-.4 0-.7.5-1.2 1-1.2.7 0 .7.6.1 1.8-.7 1.3-.6 2.3.1 3 .7.7.8 1.2.2 1.2-.6 0-1.4-.4-2-1-.6-.6-1.5-.6-2.4.1-1.2.8-1.1.9.5.7 1.5-.2 2 .3 1.9 1.9 0 1.5.3 2 1 1.4.7-.6 1.6-.3 2.4.5.7.8.9 1.4.5 1.5-.4 0 .2.4 1.4.9 1.3.5 2.1 1.5 1.9 2.2-.1.7-.1 1 .1.5.3-.4 1.1-.7 1.8-.7s1.5-.6 1.8-1.3c.4-.9.7-.9 1.8 0 1 1 1.6 1 2.7 0 1.3-1 1.4-.8.8 1.3l-.8 2.5 1.7-2.3c.9-1.2 2.1-2.2 2.7-2.2.6 0 .5.7-.3 1.7-1.3 1.6-1.1 1.6 1.4-.1 2.9-1.8 2.9-1.8 2.2.4l-.7 2.2 2.2-2.2c2.5-2.5 4-1.9 1.9.7-1.3 1.6-1.2 1.7.4.4.9-.7 1.7-1 1.7-.5s.7.1 1.5-1c1.3-1.7 1.6-1.7 4.4-.3 2.8 1.4 3.2 1.4 4 0 .7-1.4 1.1-1.4 3.9-.1 2.5 1.3 3 1.3 2.5.2-.7-2 .7-1.7 2.4.3.8 1 1.2 1.3.9.7-.3-.7.3-1.4 1.4-1.7 2.3-.6 2.6.3.8 2.3-.7.8 0 .4 1.6-1s2.6-1.9 2.2-1.3c-.9 1.6-.1 1.6 2.5.3 1.3-.7 1.9-.7 1.9 0 0 .5-.4 1-1 1-.5 0-1 .5-1 1.2 0 .6 1.2.1 2.7-1.3 1.4-1.3 2.3-1.8 1.9-1.2-.9 1.7.6 1.7 2.3 0 1.1-1 1.2-.7.6 1.3l-.7 2.5 1.7-2.3c.9-1.2 2.1-2.2 2.7-2.2.6 0 .5.7-.3 1.7-1.3 1.6-1.1 1.6 1.4-.1 2.9-1.8 2.9-1.8 2.2.4l-.7 2.2 2.2-2.2c2.5-2.5 4-1.9 1.9.7-1.3 1.6-1.2 1.7.4.4.9-.7 1.7-1 1.7-.5s.7.1 1.5-1c1.3-1.7 1.6-1.7 4.4-.3 2.8 1.4 3.2 1.4 4 0 .8-1.4 1.1-1.4 4 0 2.5 1.3 3.2 1.3 3.8.2.5-.7 1.7-1.3 2.8-1.3 3.8.1 4.6-.2 3.9-1.4-.4-.6-.3-.9.2-.6.5.3 1.5 0 2.2-.8.7-.8.8-1.4.3-1.4-.6 0-.8-.7-.5-1.5.4-.8 1-1.3 1.4-1 .5.3 1.2 0 1.6-.6.4-.7.3-.9-.2-.6-.6.3-1.6.2-2.4-.4-1-.6-1.1-.9-.2-.9.6 0 1.2-.5 1.2-1.1 0-.5-.4-.8-.9-.4-1.1.6-.8-4.1.2-5.2 1.2-1.1.8-2.4-.5-1.7-.7.4-.2-.5 1.1-1.9 1.4-1.5 1.9-2.7 1.3-2.7-.7 0-1.2.4-1.2 1 0 .5-.4 1-1 1s-.5-1 .2-2.6c1-2.1.9-2.7-.3-3.5-.8-.5-.9-.9-.3-.9 1.7 0 2.5-2.8 1.2-3.6-.6-.4-.8-.3-.4.4.3.6.2 1.3-.3 1.6-1 .7-.9-2 .2-3 1.2-1.2.8-2.6-.5-1.8-.7.4-.2-.5 1.1-1.9 1.4-1.5 1.9-2.7 1.3-2.7-.7 0-1.2.4-1.2 1 0 .5-.5 1-1 1-.7 0-.7-.6 0-1.9 1.3-2.4 1.3-5.4.1-4.6-1.1.6-.8-4.1.2-5.2 1.2-1.1.8-2.4-.5-1.7-.7.4-.2-.5 1.1-1.9 1.4-1.5 1.9-2.7 1.3-2.7-.7 0-1.2.4-1.2 1 0 .5-.4 1-1 1s-.5-1 .2-2.6c1-2.1.9-2.7-.3-3.5-.8-.5-.9-.9-.3-.9 1.7 0 2.5-2.8 1.2-3.6-.6-.4-.8-.3-.4.4.3.6.2 1.3-.3 1.6-1 .7-.9-2 .2-3 1.2-1.2.8-2.6-.5-1.8-.7.4-.2-.5 1.1-1.9 1.4-1.5 1.9-2.7 1.3-2.7-.7 0-1.2.4-1.2 1 0 .5-.5 1-1 1-.7 0-.7-.6 0-1.9 1.3-2.4 1.3-5.4.1-4.6-1.1.6-.8-4.1.2-5.2 1.2-1.1.8-2.4-.5-1.7-.7.4-.2-.5 1.1-1.9 1.4-1.5 1.9-2.7 1.3-2.7-.7 0-1.2.4-1.2 1 0 .5-.4 1-1 1s-.5-1 .2-2.5c.6-1.3 1.4-2.2 1.8-2 .4.2.7-.2.7-1 0-1.2-.4-1.2-2 .2-1.9 1.7-2 1.7-.8-.4.7-1.5.8-2.4.1-2.8-1.5-.9-.1-2.7 1.7-2.1.8.3 1.1.1.8-.4-.3-.6-1.3-1-2.1-1-1.7 0-1.8-1.2-.1-2.9.8-.9.8-1.2 0-.7-.6.3-1.3.2-1.5-.4-.2-.6-1.3-1.2-2.6-1.5-1.6-.3-2 0-1.5.8.4.7 0 .6-1-.2-1.4-1.1-1.7-1.1-1.7 0s-.2 1.1-.9 0c-.8-1.3-1.2-1.3-2.7 0-1 .8-1.5.9-1.2.4.4-.6-.5-1.6-1.9-2.2-2.4-1.2-2.5-1.1-.9.6 1.4 1.5 1.4 1.8.1 1.8-.8 0-1.5-.4-1.5-.9 0-.4-.7-.8-1.5-.8s-1.5.3-1.5.7c0 .5-1.8.8-3.9.8-2.2 0-3.7-.3-3.5-.6.2-.4-.4-1-1.4-1.4-2.5-1.2-4.1-1.4-4.1-.7.3 2-.2 3.2-1.1 2.7-.5-.3-.7-1.3-.4-2.3.3-.9-.2-.6-1 .8s-1.5 1.9-1.6 1.2c0-.6-.5-1.2-1.1-1.2-.5 0-.8.3-.6.7.3.5-1 .8-2.9.8-2.8 0-3.3-.3-2.8-1.8.5-1.6.2-1.5-1.7.4-2.2 2.2-2.4 2.3-2.7.5-.3-1.5-.6-1.6-1.2-.5-.5.7-2 1.4-3.4 1.5-1.4 0-2.3-.2-2.1-.7.3-.4-.2-1-1.1-1.3-2.3-.9-3.1-.7-1.6.3 1 .6.9 1-.8 1.4-1.7.4-2 .2-1.4-1.5.5-1.8.4-1.8-1.7.3-2.2 2.2-2.4 2.3-2.7.5-.3-1.5-.6-1.6-1.2-.5-.5.7-2 1.4-3.4 1.5-1.4 0-2.3-.2-2.1-.7.9-1.3-2.4-1.8-3.7-.6-1.3 1.2-9 1.8-8.2.6.2-.4-.4-1-1.4-1.4-2.5-1.2-4.1-1.4-4.1-.7zm2.8 2.3c-1.6 1-2.3.4-1.4-1 .3-.6 1.1-.8 1.7-.5.6.4.5.9-.3 1.5zm56 0c-1.6 1-2.3.4-1.4-1 .3-.6 1.1-.8 1.7-.5.6.4.5.9-.3 1.5zm28.1 1.4c.7.9.8 1.5.2 1.5-.5 0-1.2-.7-1.6-1.5-.3-.8-.4-1.5-.2-1.5s.9.7 1.6 1.5z"/><path d="M287.6 227.2c.3.5 1 .6 1.5.3 1.3-.9 1.1-1.2-.6-1.2-.8 0-1.2.4-.9.9zM225.6 230.2c.3.5 1 .6 1.5.3 1.3-.9 1.1-1.2-.6-1.2-.8 0-1.2.4-.9.9zM221.5 243.9c-.6 1.1 1.3 2.6 2.2 1.7.4-.3.1-.6-.6-.6s-.9-.5-.6-1c.3-.6.4-1 .1-1-.3 0-.7.4-1.1.9zM331 251.5c0 .8.2 1.5.4 1.5s.6-.7 1-1.5c.3-.8.1-1.5-.4-1.5-.6 0-1 .7-1 1.5zM222 251.5c0 .7 3 1.3 3.4.7.3-.4-.4-.9-1.5-.9-1-.1-1.9 0-1.9.2zM221.5 256c-.7 1.1 2.2 2.6 3.2 1.6.4-.3-.1-.6-1.1-.6-.9 0-1.4-.5-1.1-1 .3-.6.4-1 .1-1-.3 0-.8.5-1.1 1zM223 263c-.9.6-1 1-.3 1 .6 0 1.5-.5 1.8-1 .8-1.2.4-1.2-1.5 0zM226.3 266.7c-1.5.5-1.7 2.3-.4 2.3.5 0 1.1-.7 1.5-1.5.3-.8.4-1.5.3-1.4-.1 0-.8.3-1.4.6zM221.5 267.9c-.6 1.1 1.3 2.6 2.2 1.7.4-.3.1-.6-.6-.6s-.9-.5-.6-1c.3-.6.4-1 .1-1-.3 0-.7.4-1.1.9zM222 275.4c0 .2.7.7 1.6 1 .8.3 1.2.2.9-.4-.6-1-2.5-1.4-2.5-.6zM226.4 277.1c-.3.6-.2 1.5.3 2s.9.1.9-1.1c0-2.3-.2-2.4-1.2-.9zM331 283.5c0 .8.2 1.5.4 1.5s.6-.7 1-1.5c.3-.8.1-1.5-.4-1.5-.6 0-1 .7-1 1.5zM223 284c-1.2.7-1 .9.7.7 1.2 0 1.9-.5 1.7-.9-.6-1-.6-1-2.4.2zM223 290c0 .5.5 1 1 1 .6 0 1-.5 1-1 0-.6-.4-1-1-1-.5 0-1 .4-1 1zM223 298c0 .5.5 1 1 1 .6 0 1-.5 1-1 0-.6-.4-1-1-1-.5 0-1 .4-1 1zM223 306c0 .5.5 1 1 1 .6 0 1-.5 1-1 0-.6-.4-1-1-1-.5 0-1 .4-1 1zM223 314c0 .5.5 1 1 1 .6 0 1-.5 1-1 0-.6-.4-1-1-1-.5 0-1 .4-1 1zM331 315.5c0 .8.2 1.5.4 1.5s.6-.7 1-1.5c.3-.8.1-1.5-.4-1.5-.6 0-1 .7-1 1.5zM223.5 319c-.4.6-1.1.8-1.6.5-.5-.4-.9-.1-.9.4 0 1.6 1.6 1.3 3-.4.7-.8 1-1.5.7-1.5-.3 0-.9.5-1.2 1zM116 321c.6 1.1 1.3 2 1.6 2 .2 0 0-.9-.6-2s-1.3-2-1.6-2c-.2 0 0 .9.6 2zM227.6 328.7c-.6 1.4-.5 1.5.5.6.7-.7 1-1.5.7-1.8-.3-.3-.9.2-1.2 1.2zM139.6 330.8c-.3.5.1.9.9.9s1.2-.4.9-.9c-.3-.4-.7-.8-.9-.8-.2 0-.6.4-.9.8zM161.3 331.4c0 1.5 2.1 1.6 3.4.1.4-.4.2-.5-.4-.1-.7.4-1.3.2-1.3-.3 0-.6-.4-1.1-.8-1.1-.5 0-.9.6-.9 1.4zM169.3 331.3c0 .8.6 1.4 1.3 1.4.7 0 1-.6.7-1.4-.3-.7-.8-1.3-1.2-1.3-.4 0-.8.6-.8 1.3zM174 330.4c0 .2.8 1 1.8 1.7 1.5 1.3 1.6 1.2.3-.4s-2.1-2.1-2.1-1.3zM187.6 330.8c-.3.5.1.9.9.9s1.2-.4.9-.9c-.3-.4-.7-.8-.9-.8-.2 0-.6.4-.9.8zM209.3 331.5c0 .8.4 1.2.8.9.4-.2 1 0 1.4.6.3.5.1 1-.6 1s-1 .3-.6.6c1.4 1.4 2.6-.8 1.4-2.6-1.4-2.4-2.4-2.6-2.4-.5zM219.5 330.9c-.3.5-.2 1.2.3 1.5.5.3.9-.1.9-.9 0-1.7-.3-1.9-1.2-.6zM237.6 331.7c-.6 1.4-.5 1.5.5.6.7-.7 1-1.5.7-1.8-.3-.3-.9.2-1.2 1.2zM258.1 330.7c-.1 1.7 1.6 2.5 2.5 1.2.4-.7.3-.9-.4-.5-.5.3-1.3 0-1.5-.6-.4-.9-.6-1-.6-.1zM266.1 330.7c-.1 1.7 1.6 2.5 2.5 1.2.4-.7.3-.9-.4-.5-.5.3-1.3 0-1.5-.6-.4-.9-.6-1-.6-.1zM306.1 330.7c-.1 1.7 1.6 2.5 2.5 1.2.4-.7.3-.9-.4-.5-.5.3-1.3 0-1.5-.6-.4-.9-.6-1-.6-.1zM314.1 330.7c-.1 1.7 1.6 2.5 2.5 1.2.4-.7.3-.9-.4-.5-.5.3-1.3 0-1.5-.6-.4-.9-.6-1-.6-.1zM138.6 334.3c.3 1 .9 1.5 1.2 1.2.3-.3 0-1.1-.7-1.8-1-.9-1.1-.8-.5.6zM150.7 335c.3 1.1.9 2 1.5 2 .5 0 .4-.9-.2-2-.6-1.1-1.2-2-1.4-2-.2 0-.2.9.1 2zM159.5 333.9c.6 1.1.4 1.3-.8.8-2.3-.9-2.1 0 .2 1.3 1.5.7 1.9.7 1.7-.5-.1-.8-.6-1.8-1.1-2.2-.4-.5-.5-.2 0 .6z"/><path d="M186.9 334.7c1.5 2.9 1.4 3.3-.4 2.7-.8-.4-1.2-1.1-.8-1.8.4-.6-.1-.5-1 .3-2.5 2-25.2 2.1-28 .2-1.1-.8-1.7-.9-1.3-.3.4.7.1 1.3-.8 1.3-5.7.5-8.1.2-9.2-.9-1.7-1.6-2.5-1.5-1.8.3.5 1.1.2 1.3-1 .9-.9-.3-1.4-1-1.1-1.5.3-.4-.7-.2-2.2.6-1.6.9-3.1 1.1-3.7.5-.5-.5-1.8-.5-3.1 0-2 .8-2.2.6-1.8-1.3.4-2.1.4-2.1-.8-.2-.6 1.1-1.3 2.1-1.4 2.3-.5.6-3.4-1.1-3-1.8.3-.5-.3-.7-1.2-.6-1 .2-1.8 1.1-1.8 2.2 0 1.3-.6 1.8-1.7 1.6-1.3-.2-1.8.4-1.8 2.1 0 1.2-.6 2.9-1.2 3.6-.8.9-.8 1.1-.2.8.7-.4 1.5 0 1.8.9.3.8.2 1.2-.3.9-.5-.3-1.2-.1-1.6.5-.3.5.2 1 1.1 1 1.6 0 1.6.1-.2 1.6-1 .8-1.4 1.3-.8 1 .7-.3 1.5.1 1.8 1 .4 1.2.2 1.5-.9 1-2-.7-1.9.4.3 2 1 .8 1.2 1.3.5 1.4-.7 0-1.3.5-1.3 1.1 0 .5.4.8.9.5 1.1-.7.8 2.1-.4 3.1-.4.4-.5.2 0-.6.5-.9.4-1.2-.3-.8-.5.4-.9 1.5-.7 2.5.2.9.4 2.1.4 2.5.1.5.5.6.9.3.4-.2.8.6.8 1.9 0 1.3-.4 2.1-.8 1.9-.5-.3-.5-1-.2-1.6.4-.7.2-.8-.4-.4-.9.5-.8 1.5.4 3.8 1.3 2.6 1.4 3 .2 2.5-.8-.3-2.1-.1-2.9.5-1.1.8-1.1.9.3.4 1.7-.5 3.1.7 3.4 3.1.1.7-.4 1.3-1.2 1.3-.8 0-1.4.5-1.4 1.1 0 .5.5.7 1 .4 1.1-.7 1.1-.5 1.3 9.7.1 3.8-.1 6.8-.5 6.8-.5 0-.8.5-.8 1.1 0 .5.6.7 1.3.3.6-.4.3.3-.8 1.6s-1.4 2-.7 1.6c.7-.4 1.2-.2 1.3.6 0 .7.2 2.1.4 3 .2 1.1-.3 1.8-1.3 1.8-1.3 0-1.4.2-.4.8 1.5 1 2.5 5.2 1.1 5.2-.5 0-.9.5-.9 1.1 0 .5.3.8.8.6.4-.3.7 2.8.7 6.9 0 4.9-.4 7.3-1.1 7-.6-.2-1.1.2-1.1 1 0 .9.6 1.3 1.6.9 1.1-.4 1 0-.5 1.6-1 1.2-1.4 2-.8 1.6.6-.3 2.2.5 3.5 1.9 2 2.1 2.1 2.7.9 3.5-1.1.7-.6.8 1.5.3 1.7-.4 3.2-.8 3.4-1 .2-.2 1.3.4 2.4 1.3 1.1 1 1.7 1.2 1.3.5-.8-1.3-.8-1.3 10.3-1.6 5.3-.1 7.5.3 7.9 1.2.4 1.1.6 1.1 1.2.1.5-.7 2.6-1.3 4.8-1.3 2.2-.1 3.8.2 3.6.5-.2.4.3 1 1.2 1.3.8.3 1.2.2.9-.4-.3-.6 0-1 .7-1.1.7 0 2.7-.2 4.3-.3 3.6-.3 5.7.3 5 1.5-.3.4.7.2 2.2-.6 1.6-.9 3.1-1.1 3.7-.5.5.5 1.8.5 3.3-.1 1.5-.5 2.2-.5 1.8 0-.3.5-.1 1.2.5 1.6.5.3 1 0 1-.7 0-1.8 10.3-1.6 12.6.3 1 .8 1.5.9 1.1.3-.4-.7.2-1.4 1.3-1.7 1.1-.3 1.8-.1 1.5.3-.3.5.5 1.4 1.7 2.1 1.9.9 2.1.9 1.1-.2-.7-.7-1.3-1.6-1.3-2 0-.7 4.9-.3 5.7.5.4.3 1.3 0 2.1-.7 1.1-.8 1.4-.8.9 0-.4.6-.3 1.4.2 1.7.5.4 1.1-.1 1.3-1.1.3-1.5.4-1.5 2.1.1 1.4 1.4 1.7 1.5 1.7.3 0-1.1.7-1.3 2.3-.9 1.9.5 2 .3.9-1-1.1-1.4-1-1.6.6-1.1 1.1.2 2.3-.1 2.7-.8.5-.8.4-1-.3-.5-.7.4-1.2.2-1.2-.3 0-.6.6-1.1 1.3-1.1.7 0 .8-.3.2-.8-.5-.4-1-2.4-1-4.5 0-3.7.9-4.9 1.8-2.5.3.7.4.3.4-1-.1-1.2-.6-2.1-1.2-1.8-1.2.4-1.2-4 0-5.1.4-.5.5-.1 0 .7-.5.9-.4 1.2.1.7 1.3-1.2 1.3-6.9 0-6.4-.6.3-1.1-.7-1.1-2.4-.1-1.5.3-2.5.7-2.3.5.3.6.9.3 1.4-.3.5-.1 1.1.4 1.5 1.1.6.8-1.7-.8-5.8-.7-1.7-.7-2.7-.1-2.7s1-.5 1-1.1c0-.5-.4-.8-.8-.5-.5.3-.9-.2-.9-1s.6-1.3 1.2-1c.6.2 1.2-.2 1.2-1s-.5-1.3-1.1-1.1c-.6.3-1.1-.8-1.1-2.4-.1-1.5.3-2.5.7-2.3.5.3.6.9.3 1.4-.3.5-.1 1.1.4 1.5 1.1.6.8-1.7-.8-5.8-.7-1.7-.7-2.7-.1-2.7s1-.5 1-1.1c0-.5-.3-.8-.7-.6-1.1.7-.8-10.1.2-11.1.5-.4.5 0 0 .8s-.4 1.2 0 .7c1.4-1.2 1.5-3.9.3-6.1-1.5-2.6-1.7-6.6-.4-7.3.5-.4.6-.1.1.7-.5.8-.4 1.1.3.7 1.2-.8.9-5.4-.6-6.9-1.2-1.2-.4-4.8 1.2-4.8.6 0 .4-.5-.4-1-1.1-.6-1.5-2.5-1.5-6.8.1-4.6-.2-5.9-1.2-5.5-.7.3-1.3 0-1.3-.6 0-.9-2.5-1.1-8.4-.9-4.7.2-8.2 0-8-.4.3-.4 0-.8-.5-.8-.6 0-1.1.4-1.1 1 0 .5-.7.7-1.6.3-.9-.3-1.4-1.3-1.1-2.4.3-1.1.1-1.7-.4-1.3-.5.3-.9 1.2-.9 2s-.6 1.4-1.2 1.5c-.7 0-2.3.2-3.5.3-1.5.2-2-.2-1.5-1.3.3-.9.2-1.3-.3-.9-.4.4-1.4 0-2.2-1-1.3-1.5-1.3-1.5-.4.5zm35.1 25.4c0 .5-.4.9-.8.9-.5 0-.9-.7-.9-1.5s.4-1.2.9-.9c.4.3.8.9.8 1.5zm0 12c0 .5-.4.9-.8.9-.5 0-.9-.7-.9-1.5s.4-1.2.9-.9c.4.3.8.9.8 1.5zm0 43.9c0 .5-.4 1-1 1-.5 0-1-.5-1-1 0-.6.5-1 1-1 .6 0 1 .4 1 1z"/><path d="M178.1 335.6c0 1.1.3 1.4.6.6.3-.7.2-1.6-.1-1.9-.3-.4-.6.2-.5 1.3zM164.5 336c-.3.6.1.7.9.4 1.8-.7 2.1-1.4.7-1.4-.6 0-1.3.4-1.6 1zM172.5 336c-.3.6.1.7.9.4 1.8-.7 2.1-1.4.7-1.4-.6 0-1.3.4-1.6 1zM191.5 336c.3.5.8 1 1.1 1 .2 0 .4-.5.4-1 0-.6-.5-1-1.1-1-.5 0-.7.4-.4 1zM203.6 336.2c.3.5 1 .6 1.5.3 1.3-.9 1.1-1.2-.6-1.2-.8 0-1.2.4-.9.9zM221.6 343.8c-.3.5.1.9.9.9s1.2-.4.9-.9c-.3-.4-.7-.8-.9-.8-.2 0-.6.4-.9.8zM221 355.5c0 .7 3 1.3 3.4.7.3-.4-.4-.9-1.5-.9-1-.1-1.9 0-1.9.2zM221 367.5c0 .7 3 1.3 3.4.7.3-.4-.4-.9-1.5-.9-1-.1-1.9 0-1.9.2zM221.5 379.9c-.6 1.1 1.3 2.6 2.2 1.7.4-.3.1-.6-.6-.6s-.9-.5-.6-1c.3-.6.4-1 .1-1-.3 0-.7.4-1.1.9zM223.3 384.5c0 .8.4 1.2.9.9.5-.3.6-1 .3-1.5-.9-1.3-1.2-1.1-1.2.6zM223.3 388.9c0 1.1.5 1.8.9 1.5.4-.3.5-1.1.1-1.9-.7-2.1-1.2-1.9-1 .4zM116 390.4c0 .2.7.7 1.6 1 .8.3 1.2.2.9-.4-.6-1-2.5-1.4-2.5-.6zM117 394c0 .5.5 1 1.1 1 .5 0 .7-.5.4-1-.3-.6-.8-1-1.1-1-.2 0-.4.4-.4 1zM117.3 404.5c0 .8.4 1.2.9.9.5-.3.6-1 .3-1.5-.9-1.3-1.2-1.1-1.2.6zM223.3 404.9c0 1.1.5 1.8.9 1.5.4-.3.5-1.1.1-1.9-.7-2.1-1.2-1.9-1 .4zM117 410c0 .5.5 1 1.1 1 .5 0 .7-.5.4-1-.3-.6-.8-1-1.1-1-.2 0-.4.4-.4 1zM116 422.4c0 .2.7.7 1.6 1 .8.3 1.2.2.9-.4-.6-1-2.5-1.4-2.5-.6zM117 426c0 .5.5 1 1.1 1 .5 0 .7-.5.4-1-.3-.6-.8-1-1.1-1-.2 0-.4.4-.4 1zM118 436.2c0 .6.3.8.7.5.3-.4 1.3-.1 2.2.6 1.4 1.1 1.4 1 .2-.6-1.5-2-3.1-2.2-3.1-.5zM132.3 440.3c-.3.5 0 1.4.6 2 .9.9 1 .7.5-.7-.5-1.3-.4-1.7.4-1.2.6.3 1.3.3 1.6-.2.3-.5-.2-.9-1-.9s-1.7.4-2.1 1zM139 440c0 .5.5 1 1.1 1 .5 0 .7-.5.4-1-.3-.6-.8-1-1.1-1-.2 0-.4.4-.4 1zM146.7 440.9c-.4 1.7-.3 2.1.5 1.3.5-.5.8-1.6.6-2.3-.3-.8-.7-.3-1.1 1zM167 440c0 .5.5 1 1.1 1 .5 0 .7-.5.4-1-.3-.6-.8-1-1.1-1-.2 0-.4.4-.4 1zM175 440c0 .5.5 1 1.1 1 .5 0 .7-.5.4-1-.3-.6-.8-1-1.1-1-.2 0-.4.4-.4 1zM186 440c-.9.6-1 1-.3 1 .6 0 1.5-.5 1.8-1 .8-1.2.4-1.2-1.5 0zM191.4 440.5c.1.8.6 1.8 1.1 2.2.4.5.5.2 0-.6-.6-1.1-.4-1.3.8-.8 2.3.9 2.1 0-.2-1.3-1.5-.7-1.9-.7-1.7.5zM124 440.4c0 .2.7.7 1.6 1 .8.3 1.2.2.9-.4-.6-1-2.5-1.4-2.5-.6zM180 440.9c0 .6.4 1.3 1 1.6.6.3.7-.1.4-.9-.7-1.8-1.4-2.1-1.4-.7z"/><path d="M128 441.8c0 .5-.8 1.8-1.8 3-1.5 1.7-2.1 1.9-3.2.9-1-1-1.1-.9-.5.2.6 1.1.4 1.3-1 .7-1.5-.5-1.6-.4-.5.9s1.1 1.6-.1 1.3c-.8-.2-1.3.4-1.2 1.5 0 1.2-.4 1.6-1.3 1.3-.8-.3-1.4-.1-1.4.4 0 .6.8 1 1.7 1 1.5 0 1.4.2-.3 1.6-1 .8-1.3 1.3-.6.9.6-.3 1.2 0 1.3.7 0 .7.2 2.1.4 3 .2 1-.1 1.8-.6 1.8s-.9.5-.9 1.1c0 .5.6.7 1.3.3.6-.4.3.3-.8 1.6s-1.4 2-.7 1.6c.7-.4 1.2-.2 1.3.6 0 .7.2 2.1.4 3 .2 1.1-.3 1.8-1.3 1.8-1.3 0-1.4.2-.4.8 1.5 1 2.5 5.2 1.1 5.2-.5 0-.9.5-.9 1.1 0 .5.3.8.8.6.4-.3.7 2.8.7 6.9 0 4.1-.3 7.4-.7 7.4-.5 0-.8.5-.8 1.1 0 .5.6.7 1.3.3.6-.4.3.3-.8 1.6s-1.4 2-.7 1.6c.7-.4 1.2-.2 1.3.6 0 .7.2 2.1.4 3 .2 1.1-.3 1.8-1.3 1.8-1.3 0-1.4.2-.4.8 1.5 1 2.5 5.2 1.1 5.2-.5 0-.9.5-.9 1.1 0 .5.4.8.8.5.4-.2.8.4.8 1.4 0 1.5-.3 1.7-1.5.7-1-.9-.9-.3.3 2.2 1.4 2.7 1.5 3.3.4 2.8-.8-.3-2.1-.1-2.9.5-1.1.8-1.1.9.3.4 1.7-.5 3.1.7 3.4 3.1.1.7-.4 1.3-1.2 1.3-.8 0-1.4.5-1.4 1.1 0 .5.5.7 1 .4.6-.4 1 1.3 1.1 4.2 0 2.6.2 6.7.3 9 .1 2.3-.1 4-.6 3.7-1.1-.7-1 .3.3 2.7.6 1.3 1.6 1.8 2.6 1.5 1.3-.6 1.4-.4.3.9-1 1.2-1.1 1.8-.1 2.8 1 .9 1.1.9.6-.3-.4-1.2.4-1.5 4-1.5 3.9 0 4.4.2 3.9 1.8-.5 1.6-.2 1.5 1.7-.4 2.1-2.1 2.4-2.2 2.7-.6.2.9.8 1.5 1.3 1.1.5-.3.7-.9.5-1.3-.6-1 2.5-.8 4.2.3.7.4 1.2.2 1.2-.6s.5-.6 1.1.5c.5.9.7 2.2.4 2.7-.3.6-.4 1-.1 1 .3 0 1.2-1.2 2-2.8.8-1.5 1.5-2.1 1.6-1.5 0 .7.5 1.3 1.1 1.3.5 0 .8-.3.6-.7-.3-.5 1-.8 2.9-.8 2.8 0 3.3.3 2.8 1.8-.5 1.6-.2 1.5 1.7-.4 2.2-2.2 2.3-2.2 3-.3.7 1.8.8 1.8.8-.1.1-1.7.3-1.8 1.1-.5.9 1.3 1.1 1.3 2 0 .9-1.3 1-1.3 1 0s.1 1.3 1 0c.7-1.1 1-1.1 1-.2 0 .9.5 1 1.9.3 1.4-.8 2.2-.7 3 .3.6.7.9 1.5.6 1.8-.3.2.2.5 1.1.5.9 0 1.9-.9 2.2-1.9.2-1 .8-1.5 1.3-1.3.4.3.6 1.3.3 2.3-.3.9.2.6 1-.8s1.5-1.9 1.6-1.3c0 .7.5 1.3 1.1 1.3.5 0 .8-.3.6-.8-.3-.4 1-.7 2.9-.7 2.8 0 3.3.3 2.8 1.8-.5 1.6-.2 1.5 1.7-.4 2.1-2.1 2.3-2.1 2.9-.5.5 1.6.8 1.6 2.1.5 1.6-1.6 9.1-1.9 8.5-.4-.2.5-.9.9-1.5.7-.7-.1-1 .2-.6.8.8 1.3 1.1 1.3 3.1-.7 1.8-1.8 4.8-2.8 3.8-1.2-.3.5.4.9 1.5.9 1.2 0 2.1-.4 2.1-.9 0-.9 3.8-.7 6.7.4.8.2 1-.2.6-1.3-.6-1.5-.5-1.5 1.1-.3.9.8 1.6 1 1.5.5-.4-2.1.2-2.6 1.9-1.3 1.4 1.1 1.3 1-.2-.9-1.1-1.2-1.4-2.2-.8-2.2.6 0 1-.6.7-1.2-.2-.7-.6-3-.8-5.1-.4-2.7-.1-3.7.9-3.7.8 0 1.4-.5 1.4-1.1 0-.5-.4-.8-.9-.5-.5.3-1.1-.6-1.4-1.9-.2-1.4 0-2.8.6-3.2.6-.4.7-.1.2.8-.5.8-.4 1 0 .6 1.4-1.2 1.5-3.9.3-6.1-1.5-2.6-1.7-6.6-.4-7.3.5-.4.6 0 .1.8s-.4 1.1.1.6c1.3-1.2 1.3-6.9 0-6.4-.6.3-1.1-.7-1.1-2.4-.1-1.5.3-2.5.7-2.3.5.3.6.9.3 1.4-.3.5-.1 1.1.4 1.5 1.1.6.8-1.7-.8-5.8-.7-1.7-.7-2.7-.1-2.7s1-.5 1-1.1c0-.5-.4-.8-.8-.5-.5.3-.9-.2-.9-1s.6-1.3 1.2-1c.6.2 1.2-.2 1.2-1s-.5-1.3-1.1-1.1c-.6.3-1.1-.8-1.1-2.4-.1-1.5.3-2.5.7-2.3.5.3.6.9.3 1.4-.3.5-.1 1.1.4 1.5 1.1.6.8-1.7-.8-5.8-.7-1.7-.7-2.7-.1-2.7s1-.5 1-1.1c0-.5-.3-.8-.7-.6-.5.3-.8-1.5-.8-3.9 0-2.9.4-4.4 1.2-4.4.7 0 1.3-.5 1.3-1.1 0-.6-.6-.9-1.3-.6-1.4.5-1.6-3.8-.2-5 .4-.5.5-.1 0 .7-.5.8-.4 1.2 0 .7 1.4-1.2 1.5-3.9.3-6.1-1.5-2.6-1.7-6.6-.4-7.3.5-.4.6-.1.1.7-.5.9-.4 1.1.3.6 1.6-1 1.5-2.6-.2-2.6-.8 0-1.2-.9-1.1-2.5.2-1.4 0-2.3-.3-2.1-.4.2-1.2-.2-1.9-.9-1-1.1-1-1.5 0-1.8.9-.4.9-.6 0-.6-.6-.1-1.5.4-1.8.9-.4.6-1.4.1-2.4-1.1-1.4-1.7-1.8-1.9-1.8-.6 0 .9.5 1.3 1.1 1 .6-.3.7-.2.3.2-.4.5-1.4 1-2.2 1.1-1.1.2-1.4-.5-1.1-2.3.4-2.2.3-2.3-1.2-1.2-2.7 2.1-2.8 2.3-.9 1.6 1-.4 1.6-.3 1.3.2-.3.5-1.5 1.1-2.6 1.4-1.9.5-2.6-.8-2.1-3.6.1-.5-.3-.6-.8-.3s-.7 1.6-.4 2.9c.5 2.2.5 2.2-1.1.2-1-1.1-1.5-1.5-1.2-.9.3.7-.5 1.4-1.9 1.6-1.8.4-2.5.1-2.6-1.1 0-1.2-.2-1.1-.9.4-.6 1.4-.9 1.6-1 .5-.2-.8-.2-1.9-.1-2.3.1-.5-.3-.6-.9-.2-.6.3-.8 1.1-.5 1.6.4.5 0 .9-.7 1-.7 0-3.2.1-5.5.3-2.3.1-3.9-.2-3.7-.6.3-.5 1-.5 1.6-.2.7.4.8.2.4-.4-.5-.9-1.3-.9-2.8-.1-2.6 1.4-8.9 1.9-8.2.7.3-.4 1-.5 1.6-.2.7.4.8.2.4-.4-.4-.6-1.4-.8-2.3-.5-1.1.5-1.4.3-.8-.6.4-.8-.3-.6-1.8.4-3.2 2.1-6 2.5-6.9 1.2-.4-.7-1.2-.6-2.4.4-1.5 1.3-1.6 1.2-1-1.1l.8-2.5-1.7 2.2c-.9 1.3-2.1 2.3-2.8 2.3-.8 0-.8-.3.1-1.2 1.5-1.5 1.5-2.8.1-2.8-.5 0-.8.4-.5.8.8 1.3-2.9 3.1-4.5 2.2-.8-.5-1.9-.4-2.8.3-1.2 1-1.4.9-.9-.4.4-.9.1-1.6-.7-1.6-.7 0-1.1.6-.9 1.2.3.6-.2 1.2-1 1.2s-1.3-.4-1-.9c.6-1-2.6-.6-4.4.6-2.2 1.3-2.7-.3-.6-1.9 1.8-1.4 1.7-1.4-.8-.4-1.6.7-2.8 1.6-2.8 2.1 0 .4-.5.8-1.1.8-.5 0-.7-.5-.3-1.2.5-.8.2-.9-1.2-.4-4.9 2-7.2.8-5.8-2.9.4-.8.3-1.5 0-1.5s-.6.4-.6.8zm45 4.2c0 .5-.5 1-1.1 1-.5 0-.7-.5-.4-1 .3-.6.8-1 1.1-1 .2 0 .4.4.4 1zm49 18.1c0 .5-.4.9-.8.9-.5 0-.9-.7-.9-1.5s.4-1.2.9-.9c.4.3.8.9.8 1.5zm0 47.9c0 .5-.4 1-1 1-.5 0-1-.5-1-1 0-.6.5-1 1-1 .6 0 1 .4 1 1zm0 12.1c0 .5-.4.9-.8.9-.5 0-.9-.7-.9-1.5s.4-1.2.9-.9c.4.3.8.9.8 1.5zm-48 25c0 .6-.4.7-1 .4-.5-.3-1-1.1-1-1.6 0-.6.5-.7 1-.4.6.3 1 1.1 1 1.6z"/><path d="M162.8 441.7c.6.2.9 1 .6 1.5-.4.7-.2.8.5.4 1.3-.9.5-2.6-1.2-2.5-.9 0-.8.2.1.6zM135.5 443c-.3.5-.1 1 .4 1 .6 0 1.1-.5 1.1-1 0-.6-.2-1-.4-1-.3 0-.8.4-1.1 1zM153 443.9c0 .6.4 1.3 1 1.6.6.3.7-.1.4-.9-.7-1.8-1.4-2.1-1.4-.7zM187.3 444.4c-.3.6-.3.8.2.4.4-.4 1.3-.3 2 .2.8.7 1.2.5 1.2-.3 0-1.6-2.5-1.8-3.4-.3zM130.6 445.2c.3.5 1 .6 1.5.3 1.3-.9 1.1-1.2-.6-1.2-.8 0-1.2.4-.9.9zM166.6 445.2c.3.5 1 .6 1.5.3 1.3-.9 1.1-1.2-.6-1.2-.8 0-1.2.4-.9.9zM178.6 445.2c.3.5 1 .6 1.5.3 1.3-.9 1.1-1.2-.6-1.2-.8 0-1.2.4-.9.9zM117 458c0 .5.5 1 1.1 1 .5 0 .7-.5.4-1-.3-.6-.8-1-1.1-1-.2 0-.4.4-.4 1zM221 459.4c0 .2.7.7 1.6 1 .8.3 1.2.2.9-.4-.6-1-2.5-1.4-2.5-.6zM117.3 468.5c0 .8.4 1.2.9.9.5-.3.6-1 .3-1.5-.9-1.3-1.2-1.1-1.2.6zM117 474c0 .5.5 1 1.1 1 .5 0 .7-.5.4-1-.3-.6-.8-1-1.1-1-.2 0-.4.4-.4 1zM222.8 479.7c.6.2.9 1 .6 1.5-.4.7-.2.8.5.4 1.3-.9.5-2.6-1.2-2.5-.9 0-.8.2.1.6zM223.3 484.9c0 1.1.5 1.8.9 1.5.4-.3.5-1.1.1-1.9-.7-2.1-1.2-1.9-1 .4zM116 486.4c0 .2.7.7 1.6 1 .8.3 1.2.2.9-.4-.6-1-2.5-1.4-2.5-.6zM117 490c0 .5.5 1 1.1 1 .5 0 .7-.5.4-1-.3-.6-.8-1-1.1-1-.2 0-.4.4-.4 1zM117.3 500.5c0 .8.4 1.2.9.9.5-.3.6-1 .3-1.5-.9-1.3-1.2-1.1-1.2.6zM223.3 500.9c0 1.1.5 1.8.9 1.5.4-.3.5-1.1.1-1.9-.7-2.1-1.2-1.9-1 .4zM117 506c0 .5.5 1 1.1 1 .5 0 .7-.5.4-1-.3-.6-.8-1-1.1-1-.2 0-.4.4-.4 1zM221 519.5c0 .7 3 1.3 3.4.7.3-.4-.4-.9-1.5-.9-1-.1-1.9 0-1.9.2zM117.4 535.9c.1 1.6.4 3.2.7 3.5.3.3.5-.8.4-2.4-.1-1.6-.4-3.2-.7-3.5-.3-.3-.5.8-.4 2.4zM125.1 548.7c-.1 1.8 1.3 2.3 2.9 1.1 1.2-.8 1.2-.9-.2-.5-.9.3-1.9.1-2.2-.6-.3-.9-.5-.9-.5 0zM150.6 548.8c-.3.5.1.9.9.9s1.2-.4.9-.9c-.3-.4-.7-.8-.9-.8-.2 0-.6.4-.9.8zM167.9 549.7c-1.3 1.6-1.2 1.7.4.4 1.6-1.3 2.1-2.1 1.3-2.1-.2 0-1 .8-1.7 1.7zM182.6 548.8c-.3.5.1.9.9.9s1.2-.4.9-.9c-.3-.4-.7-.8-.9-.8-.2 0-.6.4-.9.8zM211.4 549.2c-.4.7-.4 1 .1.6.4-.4 1.6-.3 2.6.3 1.1.5 1.9.7 1.9.5 0-.3-.9-1-1.9-1.6-1.5-.7-2.2-.7-2.7.2z"/></svg>