<?xml version="1.0" standalone="no"?>
<!DOCTYPE svg PUBLIC "-//W3C//DTD SVG 20010904//EN"
 "http://www.w3.org/TR/2001/REC-SVG-20010904/DTD/svg10.dtd">
<svg version="1.0" xmlns="http://www.w3.org/2000/svg"
 width="700.000000pt" height="700.000000pt" viewBox="0 0 700.000000 700.000000"
 preserveAspectRatio="xMidYMid meet">
<metadata>
Created by potrace 1.14, written by Peter Selinger 2001-2017
</metadata>
<g transform="translate(0.000000,700.000000) scale(0.100000,-0.100000)"
fill="#000000" stroke="none">
<path d="M882 6985 c-457 -83 -786 -415 -867 -873 -15 -87 -13 -288 4 -372 49
-241 193 -465 402 -626 32 -24 62 -44 67 -44 6 0 12 -3 14 -7 11 -27 215 -111
333 -139 77 -18 168 -19 2665 -19 2093 0 2597 2 2648 13 340 71 600 274 747
583 78 167 101 274 99 479 -1 105 -6 153 -23 215 -55 204 -142 354 -289 500
-60 59 -199 165 -217 165 -4 0 -19 8 -33 18 -15 11 -40 24 -57 30 -16 6 -53
19 -81 30 -29 11 -74 25 -100 31 -27 6 -60 15 -74 19 -14 4 -1181 7 -2595 8
-2090 2 -2584 0 -2643 -11z"/>
<path d="M1027 4554 c-1 -1 -31 -4 -67 -7 -84 -8 -141 -20 -245 -51 -127 -38
-286 -135 -397 -244 -286 -278 -386 -692 -261 -1077 121 -376 442 -654 818
-709 23 -4 52 -9 65 -12 37 -8 2621 -7 2672 1 23 4 57 9 73 11 197 31 425 152
576 307 144 148 249 363 279 570 11 74 14 234 5 282 -3 17 -8 46 -11 65 -24
151 -126 367 -233 495 -161 191 -353 300 -621 351 -73 14 -329 18 -1408 18
-684 1 -1244 0 -1245 0z"/>
<path d="M1038 2105 c-1 -1 -32 -6 -67 -9 -352 -34 -671 -254 -829 -571 -40
-79 -70 -158 -78 -204 -3 -14 -7 -28 -9 -32 -3 -4 -7 -24 -11 -45 -3 -22 -7
-50 -10 -64 -5 -29 -5 -199 0 -250 9 -102 52 -239 108 -350 150 -299 412 -495
753 -565 52 -11 238 -14 300 -5 151 22 323 90 456 181 56 38 190 163 229 214
104 136 182 310 206 459 3 21 8 48 10 60 6 27 5 198 -1 256 -54 486 -470 887
-950 917 -44 2 -85 6 -92 8 -6 2 -13 2 -15 0z"/>
</g>
</svg>
