<svg xmlns="http://www.w3.org/2000/svg">
  <defs/>
  <defs>
    <symbol id="soccer_field" viewBox="0 0 32 32">
      <path d="M29 0H3v32h26V1 0zM13 1h6v2h-6V1zm-2 0h1v2l1 1h6l1-1V1h1v5H11V1zm7 6l-2 1-2-1h4zM4 1h2L4 3V1zm0 30v-2l2 2H4zm15 0h-6v-2h6v2zm2 0h-1v-2l-1-1h-6l-1 1v2h-1v-5h10v5zm-7-6l2-1 2 1h-4zm14 6h-2l2-2v2zm0-3c-1 0-3 1-3 3h-3v-6h-3c0-1-1-2-3-2l-3 2h-3v6H7c0-2-2-3-3-3V17h8a4 4 0 008 0h8v11zm-9-11a3 3 0 01-6 0h6zm-6-2a3 3 0 016 0h-6zm15 0h-8a4 4 0 00-8 0H4V4c1 0 3-1 3-3h3v6h3c0 1 1 2 3 2l3-2h3V1h3c0 2 2 3 3 3v11zm0-12l-2-2h2v2zM15 5h2-2zM15 27h2-2z"/>
    </symbol>
    <symbol id="team" viewBox="0 0 32 32">
      <path d="M31 16l-1-1v-4l-1-1h-2l-1 1a2 2 0 01-2 2v-2l-1-1-1-2V5l-1-1h-2l-1 1-2 2-2-2-1-1h-2l-1 1v3l-1 2-1 1v2l-2-2-1-1H3l-1 1v4l-1 1-1 1v10l1 1h13l1-1v-5h2v5l1 1h13l1-1V17l-1-1zm-21 4v-1h12v1H10zm2-12V6c1 2 2 3 4 3s3-1 4-3v2c0 2 0 3 2 4v5H10v-5c2-1 2-2 2-4zM2 26v-1h11v1H2zm11-3H2v-5l2-3v-2a4 4 0 004 2v6l1 1h4v1zm10-1l1-1v-6l4-2v2l2 3v5H19v-1h4zm-4 4v-1h11v1H19z"/>
    </symbol>
  </defs>
</svg>
