<?xml version="1.0" encoding="iso-8859-1"?>
<!-- Generator: Adobe Illustrator 19.0.0, SVG Export Plug-In . SVG Version: 6.00 Build 0)  -->
<svg version="1.1" id="Layer_1" xmlns="http://www.w3.org/2000/svg" xmlns:xlink="http://www.w3.org/1999/xlink" x="0px" y="0px"
	 viewBox="0 0 480 480" style="enable-background:new 0 0 480 480;" xml:space="preserve">
<g>
	<g>
		<path d="M432,0H320h-32h-96h-32H48c-4.416,0-8,3.584-8,8v464c0,4.416,3.584,8,8,8h112h32h96h32h112c4.416,0,8-3.584,8-8V8
			C440,3.584,436.416,0,432,0z M200,16h80v24h-80V16z M168,16h16v32c0,4.416,3.584,8,8,8h96c4.416,0,8-3.584,8-8V16h16v80H168V16z
			 M267.112,112c-5.544,4.496-15.336,8-27.112,8s-21.568-3.504-27.112-8H267.112z M56,16h31.192C84,31.648,71.648,44,56,47.192V16z
			 M56,464v-31.192C71.648,436,84,448.352,87.192,464H56z M280,464h-80v-24h80V464z M312,464h-16v-32c0-4.416-3.584-8-8-8h-96
			c-4.416,0-8,3.584-8,8v32h-16v-80h144V464z M212.888,368c5.544-4.496,15.336-8,27.112-8s21.568,3.504,27.112,8H212.888z M424,464
			h-31.192C396,448.352,408.352,436,424,432.808V464z M424,416.64c-24.472,3.52-43.84,22.888-47.36,47.36H328v-88
			c0-4.416-3.584-8-8-8h-33.512c-5.208-13.944-23.736-24-46.488-24s-41.28,10.056-46.488,24H160c-4.416,0-8,3.584-8,8v88h-48.64
			c-3.528-24.472-22.888-43.84-47.36-47.36V248h128.64c3.904,27.096,27.208,48,55.36,48c28.152,0,51.456-20.904,55.36-48H424V416.64
			z M279.192,248c-3.72,18.232-19.872,32-39.192,32s-35.472-13.768-39.192-32H279.192z M200.808,232
			c3.72-18.232,19.872-32,39.192-32s35.472,13.768,39.192,32H200.808z M424,232H295.36c-3.904-27.096-27.208-48-55.36-48
			s-51.456,20.904-55.36,48H56V63.36C80.472,59.84,99.84,40.472,103.36,16H152v88c0,4.416,3.584,8,8,8h33.512
			c5.208,13.944,23.736,24,46.488,24s41.28-10.056,46.488-24H320c4.416,0,8-3.584,8-8V16h48.64
			c3.52,24.472,22.888,43.84,47.36,47.36V232z M424,47.192C408.352,44,396,31.648,392.808,16H424V47.192z"/>
	</g>
</g>
<g>
	<g>
		<rect x="232" y="72" width="16" height="8"/>
	</g>
</g>
<g>
	<g>
		<rect x="232" y="400" width="16" height="8"/>
	</g>
</g>
<g>
</g>
<g>
</g>
<g>
</g>
<g>
</g>
<g>
</g>
<g>
</g>
<g>
</g>
<g>
</g>
<g>
</g>
<g>
</g>
<g>
</g>
<g>
</g>
<g>
</g>
<g>
</g>
<g>
</g>
</svg>
