<?xml version="1.0" encoding="iso-8859-1"?>
<!-- Generator: Adobe Illustrator 18.0.0, SVG Export Plug-In . SVG Version: 6.00 Build 0)  -->
<!DOCTYPE svg PUBLIC "-//W3C//DTD SVG 1.1//EN" "http://www.w3.org/Graphics/SVG/1.1/DTD/svg11.dtd">
<svg version="1.1" id="Capa_1" xmlns="http://www.w3.org/2000/svg" xmlns:xlink="http://www.w3.org/1999/xlink" x="0px" y="0px"
	 viewBox="0 0 297 297" style="enable-background:new 0 0 297 297;" xml:space="preserve">
<path d="M291.148,151.274c-6.571-2.863-10.818-9.34-10.818-16.5v-30.466c0-5.381-4.363-9.743-9.743-9.743h-17.609
	c-5.381,0-9.743,4.363-9.743,9.743c0,10.089-7.607,17.991-17.319,17.991c-2.248,0-4.38-0.429-6.333-1.206v-18.109
	c0-3.876-2.298-7.384-5.852-8.933c-6.571-2.862-10.817-9.339-10.817-16.5V47.085c0-5.381-4.363-9.743-9.743-9.743h-17.609
	c-5.381,0-9.743,4.363-9.743,9.743c0,10.089-7.607,17.991-17.318,17.991s-17.318-7.902-17.318-17.991
	c0-5.381-4.363-9.743-9.743-9.743h-17.609c-5.381,0-9.743,4.363-9.743,9.743v30.466c0,7.161-4.246,13.638-10.817,16.5
	c-3.554,1.549-5.852,5.056-5.852,8.933v18.099c-1.953,0.781-4.083,1.216-6.333,1.216c-9.712,0-17.319-7.902-17.319-17.991
	c0-5.381-4.363-9.743-9.743-9.743H26.413c-5.381,0-9.743,4.363-9.743,9.743v30.465c-0.001,7.161-4.247,13.638-10.818,16.501
	C2.298,152.823,0,156.33,0,160.206v89.709c0,5.381,4.363,9.743,9.743,9.743h122.68c5.381,0,9.743-4.363,9.743-9.743v-47.479h12.666
	v47.479c0,5.381,4.363,9.743,9.743,9.743h122.68c5.381,0,9.743-4.363,9.743-9.743v-89.709
	C297,156.33,294.702,152.823,291.148,151.274z M96.904,182.949V172.57h103.192v10.379H96.904z M113.572,77.551V59.148
	c4.827,14.923,18.452,25.415,34.928,25.415s30.101-10.491,34.928-25.415v18.403c0,12.664,6.372,24.299,16.668,31.171v49.233H96.904
	v-49.233C107.2,101.851,113.572,90.215,113.572,77.551z M19.487,240.172v-10.38H122.68v10.38H19.487z M122.68,215.177H19.487
	v-49.232c10.295-6.873,16.668-18.508,16.669-31.171v-18.4c4.828,14.921,18.453,25.412,34.928,25.412
	c2.167,0,4.279-0.193,6.333-0.543v51.451c0,5.381,4.363,9.743,9.743,9.743h35.52V215.177z M209.84,202.436
	c5.381,0,9.743-4.363,9.743-9.743v-51.439c2.053,0.35,4.168,0.532,6.333,0.532c16.474,0,30.1-10.49,34.928-25.412v18.4
	c0,12.664,6.371,24.299,16.669,31.171v49.232H174.32v-12.741H209.84z M174.32,240.172v-10.38h103.193v10.38H174.32z"/>
<g>
</g>
<g>
</g>
<g>
</g>
<g>
</g>
<g>
</g>
<g>
</g>
<g>
</g>
<g>
</g>
<g>
</g>
<g>
</g>
<g>
</g>
<g>
</g>
<g>
</g>
<g>
</g>
<g>
</g>
</svg>
