<svg xmlns="http://www.w3.org/2000/svg"
  xmlns:xlink="http://www.w3.org/1999/xlink"
  viewBox="0 0 96 96"
  width="96"
  height="96">
  <defs>
    <style>
		g {display: none}
		g:target {display: inline}
    </style>
  </defs>
  <g id="lineup"
    viewBox="0 0 96 96">
    <path style=" stroke:none;fill-rule:nonzero;fill:rgb(0%,0%,0%);fill-opacity:1;"
      d="M 87 0 L 9 0 L 9 96 L 87 96 Z M 39 3 L 57 3 L 57 9 L 39 9 Z M 33 3 L 36 3 L 36 9 L 39 12 L 57 12 L 60 9 L 60 3 L 63 3 L 63 18 L 33 18 Z M 54 21 L 48 24 L 42 21 Z M 12 3 L 18 3 L 12 9 Z M 12 93 L 12 87 L 18 93 Z M 57 93 L 39 93 L 39 87 L 57 87 Z M 63 93 L 60 93 L 60 87 L 57 84 L 39 84 L 36 87 L 36 93 L 33 93 L 33 78 L 63 78 Z M 42 75 L 48 72 L 54 75 Z M 84 93 L 78 93 L 84 87 Z M 84 84 C 81 84 75 87 75 93 L 66 93 L 66 75 L 57 75 C 57 72 54 69 48 69 L 39 75 L 30 75 L 30 93 L 21 93 C 21 87 15 84 12 84 L 12 51 L 36 51 C 50.082031 64.253906 72.246094 63.582031 85.5 49.5 C 98.753906 35.417969 98.082031 13.253906 84 0 L 108 0 L 108 33 Z M 57 51 C 42.917969 51 31.5 39.582031 31.5 25.5 C 31.5 11.417969 42.917969 0 57 0 L 75 0 Z M 39 45 C 51.425781 49.96875 65.53125 43.925781 70.5 31.5 C 75.46875 19.074219 69.425781 4.96875 57 0 L 39 0 Z M 84 45 L 60 45 C 47.574219 45 37.5 34.925781 37.5 22.5 C 37.5 10.074219 47.574219 0 60 0 L 12 0 L 12 12 C 15 12 21 9 21 3 L 30 3 L 30 21 L 39 21 C 39 24 42 27 48 27 L 57 21 L 66 21 L 66 3 L 75 3 C 75 9 81 12 84 12 Z M 84 9 L 78 3 L 84 3 Z M 45 15 L 51 15 Z M 45 81 L 51 81 Z M 45 81 "/>
  </g>
  <g id="transfert"
    viewBox="0 0 96 96">
    <path style=" stroke:none;fill-rule:nonzero;fill:rgb(0%,0%,0%);fill-opacity:1;"
      d="M 32.199219 51 L 32.199219 19.398438 L 20.199219 31.398438 L 16 27.199219 L 35.300781 7.898438 L 54.601562 27.199219 L 50.398438 31.398438 L 38.199219 19.300781 L 38.199219 51 Z M 60.699219 87.898438 L 41.398438 68.5 L 45.601562 64.398438 L 57.601562 76.398438 L 57.601562 44.800781 L 63.601562 44.800781 L 63.601562 76.5 L 75.800781 64.398438 L 80 68.601562 Z M 60.699219 87.898438 "/>
  </g>
  <g id="article"
    viewBox="0 0 96 96">
    <path style=" stroke:none;fill-rule:nonzero;fill:rgb(0%,0%,0%);fill-opacity:1;"
      d="M 24 56.101562 L 55.300781 56.101562 L 55.300781 50.101562 L 24 50.101562 Z M 24 43.101562 L 72 43.101562 L 72 37.101562 L 24 37.101562 Z M 24 30.101562 L 72 30.101562 L 72 24.101562 L 24 24.101562 Z M 8 88 L 8 14 C 8 12.464844 8.601562 11.082031 9.800781 9.851562 C 11 8.617188 12.398438 8 14 8 L 82 8 C 83.535156 8 84.917969 8.617188 86.148438 9.851562 C 87.382812 11.082031 88 12.464844 88 14 L 88 66 C 88 67.535156 87.382812 68.917969 86.148438 70.148438 C 84.917969 71.382812 83.535156 72 82 72 L 24 72 Z M 14 73.5 L 21.5 66 L 82 66 L 82 14 L 14 14 Z M 14 14 L 14 73.5 Z M 14 14 "/>
  </g>

</svg>
